<svg xmlns="http://www.w3.org/2000/svg" xml:space="preserve" viewBox="0 0 130.7 167.9">
  <path fill="#f9e9e9" d="m65.4 167-1.8-.8-1-1.4-1-1.4-3.4-6.1L55 151l-.8 1.8-.9 1.8-.9 1-1 1-1.7 1-1.8.8h-4.6l-2.4-1.1-2.3-1.2-1.3-1.4-1.3-1.4-.9-2-1-2v-4.6l1-1.8 1-1.8 1.4-1.3 1.5-1.2 1.6-.6 1.6-.5h2.6l2 .7 2 .7v-.7L47 135l-1.7-3 .2-.6.2-.5 1.4-.8 1.4-.8v-.2l-1.5-.9-1.5-.8-7.5-4.5-7.4-4.5-1.1-1-1.2-.8.1-.4.2-.4 1.2-.6 1.2-.7 1.1-1.2 1.1-1.2.4-1.6.5-1.6-.2-2.3-.2-2.2-1-1.6-.8-1.6-1.6-1.3-1.7-1.2-2-.4-1.9-.4-1.6.2-1.6.3-1.3.6-1.2.7-1.1 1.2-1.2 1.1-.3 1-.4 1v5.3h-1.2l-4.8-3-4.8-2.9-2.3-1.4-2.4-1.3-.2-.5-.2-.5V1L.4.5.8 0H50l.4.4.4.4v46l6.1-3.6 6-3.6 12-7.2 11.7-7.1 1.2-.7 1.1-.7 10 6 10 6 7.9 5 8 4.8.6 1.2.6 1.3-.1 8.8-.1 8.8-1.1 2.1-1.1 2.1-1 1-1 1-9.7 5.7-9.6 5.7v.7l3.1 2 3.1 1.8 7.8 4.8 7.7 4.7 1.7 1.8 1.7 1.9 1.7 3.3 1.6 3.3v18.8l-1.4 3-1.5 3-1.8 2-1.9 2-3.4 2-3.4 2-2.4 1.5-2.5 1.5-6.4 3.7-6.3 3.7-12.5 7.3-12.4 7.3-2.5 1.2-2.6 1.2h-2.5zm-7.6-43.3 6.6-4 6.2-3.6 6.2-3.7 5.2-3.1 5.2-3.2-2.3-1.5-2.4-1.4-11-6.7-11.1-6.7-.2-.5-.2-.5.2-.3.2-.3 7.8-4.7L76 79l5.8-3.4 5.8-3.5-.8-.5-.9-.5-4-2.5-4-2.4-4.3-2.6-4.3-2.6-8.4-5.1-8.5-5.1-.8-.5-.8-.5v78h.4z"/>
  <path fill="#f4dbe1" d="m65.4 166.9-1.4-.7-1-1.2-1-1.2-3.4-6.3-3.5-6.3H55l-.3.1-.8 1.7-.7 1.7-1.5 1.3-1.4 1.2-1.6.7-1.6.6-2.1-.2-2-.1-2.1-1-2-1-1.6-1.8-1.5-1.7-.7-2-.8-1.9v-3.6l.9-1.8.8-1.8 1.6-1.4 1.6-1.4 1.4-.4 1.4-.5h3.2l2 .7 2 .7v-.7l-1.8-3.2-1.8-3.1v-1l1.4-.8 1.4-.9v-.7l-1.3-.7-1.3-.7-7.4-4.5-7.4-4.5-1.2-1-1.1-.8v-.3l.2-.3 1.7-1.2 1.8-1.1.9-1.8.9-1.7v-5l-1-2-1-2-1.4-1.1-1.3-1-1.4-.7-1.3-.5H22l-1.8.9-1.8.9-1 1-.9 1-.5 1.3-.6 1.3v4.6h-1.1l-4-2.4-3.8-2.5-3.1-1.8-3.1-1.8-.1-40.4-.1-40.5.2-9.5L.6.5h49.7v23.2l.2 23.2h.6l9.3-5.6 9.3-5.6 8.6-5.1 8.5-5.2.8-.5.8-.6h.8l6.7 4 6.6 4 10.6 6.5 10.6 6.4.9.9.8.8v19.2l-1 1.8-.8 1.8-1.4 1.2-1.4 1.2-9.4 5.7-9.4 5.6v.8l2.4 1.4 2.3 1.5 8.5 5.1 8.5 5.2 1.8 2 1.8 2 1.6 2.8 1.5 2.9v20l-1.3 2.6-1.3 2.5-2 2.2-2 2.1-3.4 2-3.4 2-2.5 1.5-2.5 1.5-6.3 3.7-6.4 3.7-12.4 7.3-12.5 7.3-2.2 1-2.1 1h-3.2zM59 123.2l6.6-3.9 5.4-3.2 5.5-3.3 5.4-3.2 5.4-3.2v-.6l-2-1.2-2.1-1.3-11.3-6.8-11.3-6.9v-1.2l4.8-2.9 4.8-2.9 8.7-5.1 8.7-5.2v-.6l-1.5-.9-1.5-.8-7.4-4.6-7.4-4.5-8.5-5-8.4-5.2-1-.6-.9-.7-.2.2-.2.3v77.7l.2.2.2.3.8-.5.7-.5z"/>
  <path fill="#f2cfd5" d="m65.2 166.7-1.6-.9-.7-1-.7-1-3.6-6.5-3.6-6.7h-.2l-1 2-.9 2-.8 1-.7.8-2.2 1-2 1h-3.7l-2.4-1.2-2.4-1.3-1.2-1.3-1.2-1.3-.9-1.8-.9-1.7-.2-2-.2-2.1 1.2-2.3 1-2.2 1.5-1.1L39 139l1.3-.5 1.2-.6h3.6l1.8.7 1.9.7h.5l-.2-.6-.3-.6-1.7-3.1-1.8-3.2 1-.7.9-.7.8-.6.7-.6-.8-.5-.9-.6-5.1-3-5.1-3.1-4-2.5-4-2.6-.2-.4-.1-.4 1.7-1 1.8-1 1-1.9 1-2V105l-.8-1.7-.9-1.7-1-1-1.1-1-1.7-.9L27 98h-4.9l-1.7.8-1.6.7-1.2 1.2-1.2 1.3-.4 1.4-.5 1.4v4.3h-.8l-5.5-3.3-5.5-3.4-1.6-1-1.5-1-.2-40.2L.2 20l.2-9.7L.6.5h49.7v23.2l.2 23.2h.8l5.9-3.5L63 40l11.8-7.2 11.8-7.2 1.2-.6 1.1-.7 5.7 3.4 5.8 3.5 11.5 7 11.4 7 1.2 1.2 1.2 1.3-.1 9.2-.2 9.2-1 2-1 1.8-1.2 1-1 1-3 1.7-3 1.8-6 3.6-6 3.5-.9.7-.8.7 1.4.8 1.4 1 2.8 1.7 2.8 1.8 4.2 2.5 4.3 2.6 3.1 2 3.2 2 1.5 1.9 1.5 1.9 1.3 2.7 1.4 2.6v19.4l-1.4 2.8-1.4 2.7-2 2.1-2 2.1-3.2 2-3.3 2h-.3l-2.5 1.5-2.5 1.6h-.3l-4.7 2.8-4.6 2.7-13.6 8-13.6 8-2.6 1.2-2.5 1.3h-3zM57.8 124l6.6-4 6.2-3.7 6.2-3.6 5.2-3.2 5.2-3.1v-.8l-3-1.8-2.9-1.8-10-6-10-6.2-.6-.5-.5-.5.3-.3.4-.4 10.2-6L81.3 76l3.1-1.8 3.1-1.8V72l-.2-.5-2.3-1.4-2.2-1.4-6.2-3.7-6.2-3.8-9.7-5.9-9.7-5.8-.3.1-.2.2V128h.6z"/>
  <path fill="#f8c5b6" d="m65.8 166.9-1.5-.7-1.1-1.3-1.1-1.4-3.5-6.3-3.5-6.4h-.4l-.3-.2v1.1l-.8 1.5-.7 1.4-1.1 1-1.2 1-1.4.8-1.4.8h-4.6l-2-1-2-1-1.6-1.8-1.6-1.7-.8-1.6-.8-1.7v-4.6l.8-1.4.8-1.5 1.1-1.2 1.2-1.1 1.8-.8 1.7-.9H45l2.1 1 2.1.8h.2v-.9l-1.8-3.1-1.7-3.1v-1.3l1.4-.8 1.4-.9v-.8l-.6-.2-.5-.2-5-3-5-3-4.3-2.8L29 117v-.8l1.7-1 1.7-1.2.8-1.7.9-1.7v-6l-1-1.9-1-1.8-1.2-.8-1-.9-1.3-.6-1.2-.7h-5.7l-1.6.8-1.6.9-.8.7-.8.8-.7 1.3-.7 1.3v4.9l-.3.2-.2.2-1.1-.6-1-.6-6.1-3.6-6-3.7-.2-.5-.2-.6v-98L.8.7l.4-.4h48.4l.4.4.5.4v46h.4l6.4-3.8 6.4-3.8 11.8-7.1 11.8-7.2.4-.3.3-.3h1.5l9.3 5.6 9.4 5.7 7.9 4.8 8 4.9.7 1.2.9 1.3-.2 8.8v8.8l-1 1.8-1 1.7-1.5 1.4-1.5 1.4-9.4 5.7-9.5 5.6v.8l2.4 1.4 2.4 1.5 8.5 5.1 8.4 5.2 2 2.2 2.1 2.1 1.5 3 1.5 3v18.8L129 129l-1.3 2.7-2.2 2.4-2.2 2.3-3.4 2-3.4 2-2.5 1.5-2.4 1.5-6.4 3.7-6.3 3.7-12.5 7.3-12.4 7.3-2.2 1-2.2 1h-2.5zm-7.3-43.2 7.3-4.4 5.5-3.2 5.5-3.3 5.3-3.2 5.4-3.2-.1-.4-.1-.3-2.1-1.3-2.1-1.3-11.2-6.8-11.2-6.8v-1.1l5.4-3.2 5.4-3.2 8.2-4.8 8.2-5v-.5l-1.5-.9-1.5-.8-7.4-4.6L70 61l-8.4-5-8.5-5.2-1-.7-.9-.6h-.7V128h.8z"/>
  <path fill="#ebbac6" d="m65.8 166.9-1.5-.7-1.1-1.3-1.1-1.4-3.5-6.3-3.5-6.4h-.4l-.3-.2v1.1l-.8 1.5-.7 1.4-1.1 1-1.2 1-1.4.8-1.4.8h-4.6l-2-1-2-1-1.6-1.8-1.6-1.7-.8-1.6-.8-1.7v-4.6l.8-1.4.8-1.5 1.1-1.2 1.2-1.1 1.8-.8 1.7-.9H45l2.1 1 2.1.8h.2v-.9l-1.8-3.1-1.7-3.1v-1.3l1.4-.8 1.4-.9v-.8l-.6-.2-.5-.2-5-3-5-3-4.3-2.8L29 117v-.8l1.7-1 1.7-1.2.8-1.7.9-1.7v-6l-1-1.9-1-1.8-1.2-.8-1-.9-1.3-.6-1.2-.7h-5.7l-1.6.8-1.6.9-.8.7-.8.8-.7 1.3-.7 1.3v4.9l-.3.2-.2.2-1.1-.6-1-.6-6-3.6-6-3.7-.2-.6-.2-.6.1-40 .1-40V.6h49.4V47l.4.2.3.2 6.5-3.8 6.4-3.9 11.6-7 11.7-7 .8-.6.8-.5 1 .4 1 .4 2 1.3 2.1 1.3 13.3 8 13.2 8 1.5 1 1.5 1 .7 1.1.7 1.2V57l-.2 8.8-.9 1.8-1 1.7-1.5 1.4-1.5 1.4-9.4 5.7-9.5 5.6v.8l2.4 1.4 2.4 1.5 8.5 5.1 8.4 5.2 2 2.2 2.1 2.1 1.5 3 1.5 3v18.8L129 129l-1.3 2.7-2.2 2.4-2.2 2.3-3.4 2-3.4 2-2.5 1.5-2.4 1.5-6.4 3.7-6.3 3.7-12.5 7.3-12.4 7.3-2.2 1-2.2 1h-2.5zm-7.3-43.2 7.3-4.4 5.5-3.2 5.5-3.3 5.3-3.2 5.4-3.2-.1-.4-.1-.3-2.1-1.3-2.1-1.3-11.2-6.8-11.2-6.8v-1.1l5.4-3.2 5.4-3.2 8.2-4.9 8.2-4.8-.1-.4-.2-.4-1.3-.8-1.4-.7-4-2.5-4.1-2.5-7.1-4.3-7-4.3-.6-.3-.5-.3-5.3-3.2-5.2-3.2h-.6V128h.8z"/>
  <path fill="#efb0b5" d="m66.6 167-1.3-.4-1-.6-.8-.6-1-1.5-1-1.5-3-5.9-3.3-5.9h-.8l-.6 1.7-.6 1.6-1.2 1.3-1.2 1.3-1.8.9-1.9.8h-3.5l-2-1-2.1-1-1.3-1L37 154l-.8-1.5-1-1.5-.5-1.9-.5-1.8.2-1.3.3-1.2.8-1.7.8-1.7 1.5-1.2 1.5-1.3 1.8-.5 1.7-.6h1.3l2 .7 2 .7.7.2.6.3v-1.2l-1.8-3.2-1.7-3.1v-.9l1.4-.8 1.4-.8v-1l-1.5-.8-1.5-.9-7.4-4.5-7.4-4.5-1-.7-1-.7v-.6l1.3-.6 1.2-.6 1-1.2 1-1.2.4-1.3.4-1.4V105l-.9-1.8-1-2-1.6-1.3-1.7-1.3-1.8-.4-1.9-.5-2 .2-2 .2-1.4.7-1.4.7-1 1.2-1.2 1.2-.4 1-.4 1v4.5l-.5.2-.5.2L10 106l-4.5-2.7-2.4-1.4-2.3-1.4-.2-.5-.1-.6.1-40 .1-40V.6h49.4V47l.5.2.5.2 9.3-5.6 9.3-5.6 8.6-5.2 8.5-5.1.8-.6.8-.5h.9l9.2 5.6 9.3 5.6 8.3 5 8.3 5.2.6 1.2.6 1.2V57l-.2 8.4-.8 1.8-.8 1.8-1.3 1.3-1.3 1.4-4.2 2.5-4.3 2.5-5.4 3.2L102 83l-.2.5-.2.5.8.5.8.6 1.5.9 1.5.9 6.3 3.8 6.3 3.9 2.6 1.5 2.5 1.6 1.7 1.8 1.6 1.8 1 1.8 1 1.8.7 2.2.8 2.2v15l-.6 2-.5 2-.9 1.8-.9 1.7-2.1 2.3-2.2 2.3-2.8 1.7-3 1.6-1 .6-1 .6-1.8 1-1.8 1.1-6.3 3.7-6.4 3.7-12.3 7.3-12.4 7.2-2.1 1-2.1 1.2-1.3.2-1.2.2zm-8.5-43 6.7-4 6.1-3.6 6.2-3.6 5.2-3.2 5.2-3.1v-.8L80 101l-7.5-4.5-5.9-3.6-5.9-3.6v-.8l7.9-4.7 7.8-4.6 5.6-3.4 5.7-3.4v-1l-1.6-1-1.6-.9-7.4-4.5-7.4-4.5-9.2-5.6-9.3-5.6h-.7V128h1z"/>
  <path fill="#d8b0c5" d="m66.6 167-1.6-.5-1.5-1.7-1.5-1.6-3.4-6.4-3.5-6.3h-.6l-.2.5-.2.5-.8 1.7-.8 1.7-1.6 1.2-1.6 1.2-1.4.4-1.5.4-1.8-.1-1.7-.2-1.7-.8-1.7-.9-2-2-1.8-2-.6-2-.6-2 .2-1.9.2-1.8.6-1.1.5-1.1 1.3-1.3 1.3-1.3 1.4-.6 1.5-.7H45l2.2.8 2.2.7.2-.2.3-.2-2-3.6-2-3.6v-.6l1.6-1.1 1.6-1.1-.4-.5-.5-.4-5.1-3-5.2-3.2-4.3-2.7-4.3-2.6v-.9l1.6-.9 1.5-.9 1-2 1-2V105l-1.2-2.2-1.1-2.2-1.3-.9-1.3-.9-1.4-.6-1.4-.6H22l-2.1 1-2.2 1.2-.6.6-.6.7-.7 1.6-.7 1.5v4.5h-.6l-5-3-4.8-3-2-1.2-2-1.3-.1-40.1-.1-40.2.1-9.5L1 1h49v23l.1 23.2h1.1l6.4-3.9 6.5-3.8 11.6-7 11.6-7 .8-.6.8-.4 3.4 2 3.5 2.1 13.6 8.3 13.6 8.2 1 1 .9.8.4 1 .4 1-.1 8.2-.2 8.2-.8 1.8-.8 1.8-1.3 1.3-1.3 1.4-4.2 2.5-4.3 2.5-5.4 3.2L102 83l-.2.5-.2.5.8.5.8.6 1.5.9 1.5.9 6.3 3.8 6.3 3.9 2.6 1.5 2.5 1.6 1.7 1.8 1.6 1.8 1 1.8 1 1.8.8 2.2.7 2.2v15l-.6 2-.5 2-.9 1.8-.9 1.7-2.1 2.3-2.2 2.3-2.8 1.7-3 1.6-1 .6-1 .6-1.8 1-1.8 1.2-6.3 3.6-6.4 3.7-12.5 7.4-12.4 7.3-2.2 1-2.1 1-1 .2-.8.1zM59 123.7l7.3-4.4 10.6-6.3 10.5-6.4.1-.5.1-.4-7.1-4.4-7.2-4.3-6.1-3.8-6.2-3.8-.1-.4-.1-.4 7.8-4.7 7.9-4.6 5.6-3.4 5.6-3.3.2-.6.2-.5-.3-.1-.4-.1-4.2-2.6-4.2-2.6-9.2-5.6-9.2-5.5-4.8-3-4.9-3-.3.2-.4.2V128l.3.3.2.2.5-.2.6-.2z"/>
  <path fill="#d7a5bc" d="m66.6 167-1.6-.5-1.5-1.7-1.5-1.6-3.4-6.4-3.5-6.3h-.6l-.2.5-.2.5-.8 1.7-.8 1.7-1.6 1.2-1.6 1.2-1.4.4-1.5.4-1.8-.1-1.7-.2-1.7-.8-1.7-.9-2-2-1.8-2-.6-2-.6-2 .2-1.9.2-1.8.6-1.1.5-1.1 1.3-1.3 1.3-1.3 1.4-.6 1.5-.7H45l2.2.8 2.2.7.2-.2.3-.2-2-3.6-2-3.6v-.6l1.6-1.1 1.6-1.1-.4-.5-.5-.4-5.1-3-5.2-3.2-4.3-2.7-4.3-2.6v-.9l1.6-.9 1.5-.9 1-2 1-2V105l-1.2-2.2-1.1-2.2-1.3-.9-1.3-.9-1.4-.6-1.4-.6H22l-2.1 1-2.2 1.2-.6.6-.6.7-.7 1.6-.7 1.5v4.5h-.6l-5-3-4.8-3-2-1.2-2-1.3-.1-40.1-.1-40.2.1-9.5L1 1h49v23l.1 23.2h1.1l6.4-3.9 6.5-3.8 11.6-7 11.6-7 .8-.6.8-.4 3.4 2 3.5 2.1 13.6 8.3 13.6 8.2 1 1 .9.8.3 1.1.3 1.1V65l-1 2.2-1 2.1-1.2 1-1.1 1.2-9.7 5.8-9.7 5.7v1.3l3.2 2 3.2 1.9 7.7 4.7 7.8 4.7 1.6 1.8 1.7 1.8 1.3 2.5 1.3 2.5.5 1.8.4 1.8v13.9l-.3 1.9-.4 1.8-1.2 2.4-1.2 2.3-1.8 2-1.8 2-3.4 2-3.4 2-2.5 1.5-2.5 1.4-6.3 3.7-6.4 3.7-12.5 7.4-12.4 7.3-2.2 1-2.1 1-1 .2-.8.1zM59 123.7l7.3-4.4 10.6-6.3 10.5-6.4.1-.5.1-.4-7.1-4.4-7.2-4.3-6.1-3.8-6.2-3.8-.1-.4-.1-.4 7.5-4.5 7.5-4.4 6-3.6 6.1-3.6v-1.2l-.5-.2-.6-.2-4-2.4L79 66l-9.2-5.6-9.2-5.5-4.8-3-4.9-3-.3.2-.4.2V128l.3.3.2.2.5-.2.6-.2z"/>
  <path fill="#ea9aa6" d="m65.8 166.7-1-.5-1.4-1.5-1.4-1.5-3.4-6.3-3.4-6.2H55l-.3-.2-.3.5-.2.5-.8 1.7-.8 1.7-1.6 1.2-1.6 1.2-1.4.4-1.5.4-1.8-.1-1.7-.2-1.7-.8-1.7-.9-2-2-1.8-2-.6-2-.6-2 .2-1.9.2-1.8.6-1.1.5-1.1 1.3-1.3 1.3-1.3 1.4-.6 1.5-.7H45l2.2.8 2.2.7.2-.2.3-.2-2-3.6-2-3.6v-.6l1.6-1.1 1.6-1.1-.4-.5-.5-.4-5.1-3-5.2-3.2-4.3-2.7-4.3-2.6v-.9l1.6-.9 1.5-.9 1-2 1-2V105l-1.2-2.2-1.1-2.2-1.3-.9-1.3-.9-1.4-.6-1.4-.6H22l-2.1 1-2.2 1.2-.6.6-.6.7-.7 1.6-.7 1.5v4.5h-.6l-5-3-4.8-3-2-1.2-2-1.3-.1-40.1-.1-40.2.1-9.5L1 1h49v23l.1 23.2h1.1l6.4-3.9 6.5-3.8 11.6-7 11.6-7 .8-.6.8-.4 3.4 2 3.5 2.1 13.6 8.3 13.6 8.2 1.1 1.2 1.2 1.3-.1 9.2-.1 9.2-.7 1.3-.6 1.2-1.5 1.5-1.4 1.6-9.4 5.6-9.4 5.6-.4.5-.4.5.6.5.6.5 2.3 1.4 2.3 1.4 8 4.9 7.9 4.8 2.1 2.2 2.2 2.3 1.4 2.7 1.3 2.8v19.4l-1 2.4-1.2 2.3-2.4 2.5-2.3 2.5-3.4 2-3.4 2-2.5 1.5-2.5 1.5-6.3 3.7-6.4 3.7-12.4 7.3-12.5 7.3-1.8.9-1.8.8h-3.2zm-6.9-43 7.3-4.4L72 116l5.8-3.5 4.8-2.9 4.7-2.8.1-.6.1-.5-6.8-4.1-6.8-4.1-6.5-4-6.5-4-.1-.4-.1-.4 8.2-4.8 8.2-4.9 5.4-3.2 5.4-3.2v-1.2l-.6-.2-.6-.2-4-2.4L79 66l-9.2-5.6-9.2-5.5-4.8-3-4.9-3-.3.2-.4.2V128l.3.3.2.2.5-.2.6-.2z"/>
  <path fill="#d694ae" d="m65.5 166.4-1.4-.8-1-1.2-1-1.2-3.2-6-3.2-6-.5-.5-.4-.5-.4.2-.4.3v1l-.7 1.3-.7 1.3-1.1 1.1-1.2 1.2-1.2.6-1.3.6h-4.6l-2-1-2-1-1.5-1.6-1.4-1.5-.8-1.6-.7-1.7v-4.6l.8-1.4.7-1.5 1.6-1.4 1.6-1.4 1.4-.4 1.4-.4h2.4l1.7.6 1.8.5.4.4.4.3.4-.2.4-.2v-.9l-2-3.3L46 132l.1-.4.2-.4 1.4-.7 1.4-.8v-1l-1.9-1-1.8-1.1-7.2-4.3-7-4.4-1-.8-1-.8.3-.2.5-.2 1.4-1 1.3-1 .9-1.7.8-1.7v-6l-1-1.9-1-1.9-1.4-1-1.3-1-1.3-.6-1.4-.6h-5.3l-1.7.9-1.8 1-1 1-1 1-.5 1.2-.5 1.3v4.2l-.3.2-.3.2-1.2-.8-1.2-.8-5.7-3.4L.7 100V60.2l-.1-40 .1-9.6L1 .9h49l.1 23 .1 23.2.3.3.4.3 6.4-3.9 6.5-3.9 11.6-7L87 26l1-.6.8-.6 6.7 4 6.7 4 10.5 6.4 10.6 6.5.9.8.9.9V66l-.7 1.3-.6 1.2-1.5 1.5-1.4 1.6-9.4 5.6-9.4 5.6-.4.5-.4.5.6.5.6.5 2.3 1.4 2.3 1.4 8 4.9 7.9 4.8 2.1 2.2 2.2 2.3 1.4 2.7 1.3 2.8v19.4l-1 2.4-1.2 2.3-2.4 2.5-2.3 2.5-3.4 2-3.4 2-2.5 1.5-2.5 1.5-6.3 3.7-6.4 3.7-12.5 7.3-12.4 7.3-2 .9-1.8.8h-3zm3.8-48.9 18-10.8.1-.6.1-.5-6.6-4-6.6-4-2.8-1.8-2.9-1.8-1.4-.9-1.4-.8-2.5-1.6-2.6-1.6.4-.4.4-.5 7.8-4.7 7.8-4.6 5.6-3.3 5.5-3.3v-.7l-.8-.5-.8-.4-4-2.5-4-2.5-9.3-5.5-9.1-5.6-4.6-2.8-4.5-2.8-.5.2-.5.2v78.5l.3.3.2.2h.8z"/>
  <path fill="#ec868f" d="m65.8 166.5-1.5-.6-1-1.2-1-1.2-3.3-6.3-3.4-6.2-.4-.4-.4-.4-.4.2-.4.3v1l-.7 1.3-.7 1.3-1.1 1.1-1.2 1.2-1.2.6-1.3.6h-4.6l-2-1-2-1-1.5-1.6-1.4-1.5-.8-1.6-.7-1.7v-4.6l.8-1.4.7-1.5 1.6-1.4 1.6-1.4 1.4-.4 1.4-.4h2.4l1.7.6 1.8.5.4.4.4.3.4-.2.4-.2v-.9l-2-3.3L46 132l.1-.4.2-.4 1.4-.7 1.4-.8v-1l-1.9-1-1.8-1.1-7.2-4.3-7-4.4-1-.8-1-.8.3-.2.5-.2 1.4-1 1.3-1 .9-1.7.8-1.7v-6l-1-1.9-1-1.9-1.4-1-1.3-1-1.3-.6-1.4-.6h-5.3l-1.7.9-1.8 1-1 1-1 1-.5 1.2-.5 1.3v4.2l-.3.2-.3.2-1.2-.8-1.2-.8-5.7-3.4L.7 100V60.2l-.1-40 .1-9.6L1 .9h49l.1 23 .1 23.2.3.3.4.3 6.4-3.9 6.5-3.9 11.6-7L87 26l1-.6.8-.6 6.7 4 6.7 4 10.5 6.4 10.6 6.5.9.8.9.9v18.5l-1 1.8-.9 1.7-1.2 1.1-1.1 1.2-9.8 5.8-9.7 5.7v1.3l3.2 2 3.2 1.9 7.8 4.7 7.7 4.7 1.9 2 1.9 2 1.4 3 1.5 3v18.8l-1.2 2.6-1.3 2.7-2 2.2-2 2.2-3.5 2-3.4 2-2.5 1.5-2.4 1.4-6.4 3.7-6.3 3.7-12.5 7.3-12.4 7.3-2.2 1-2.2 1.1h-2.5zM58.5 124l7.3-4.3 5.8-3.5 5.9-3.4 5.2-3.2 5.2-3.1-.1-.4-.2-.4-2.1-1.5-2.2-1.4-11.1-6.7L61 89.4v-.8l4.6-2.8 4.7-2.8 8.7-5.2 8.7-5.1.3-.4.2-.5-.6-.5-.7-.4-4.2-2.6-4.3-2.6-9.2-5.5-9.1-5.6-4.6-2.8L51 49l-.5.2-.5.2v78.5l.3.3.2.2h.7z"/>
  <path fill="#f59078" d="m65.8 166.5-1.5-.6-1.1-1.6-1.1-1.5-1.4-2.5-1.3-2.4-1.3-2.3-1.2-2.3-.8-1.5-.9-1.5h-.5l-.5.2-.5 1.5-.5 1.6-1.6 1.6-1.7 1.6-2 .7-2 .6-1.4-.2-1.2-.2-2.2-1-2.2-1.1-1.2-1.3-1-1.3-1-2-.9-2v-3.9l1-1.7.9-1.9 1.3-1 1.3-1.1 1.6-.6 1.6-.5h2l2.4.9 2.4.9h.5v-1.5l-1.8-3.2-1.8-3.1v-.7l1.4-.9 1.5-.9v-.9l-2.6-1.6-2.6-1.6-3.1-2-3.2-1.9-4.2-2.6-4.2-2.6.8-.5.8-.6 1.5-1.4 1.5-1.4.4-1.7.5-1.6-.2-2.6-.1-2.7-1-1.6-1-1.6-1.7-1.4-1.7-1.4-2-.4-2-.4-2 .2-1.9.2-1.3.7-1.3.7-1.3 1.3-1.3 1.4-.3 1-.4 1v4.5h-.8l-5.1-3.2L4 102l-1.6-1-1.6-1-.2-39.9-.1-39.8.1-9.7L1 .9h49V24l.1 23.2.5.2.5.2 9.3-5.6 9.3-5.6 8.6-5.2 8.5-5.2.8-.5.8-.6h.9l9.8 6 9.8 6 7.6 4.6 7.7 4.7.6 1 .5 1.1-.1 8.7-.1 8.7-1 1.8-.9 1.7-1.2 1.1-1.1 1.2-9.8 5.8-9.7 5.7v1.3l3.2 2 3.2 1.9 7.8 4.7 7.7 4.7 1.9 2 1.9 2 1.4 3 1.5 3v18.8l-1.2 2.6-1.3 2.7-2 2.2-2 2.2-3.5 2-3.4 2-2.5 1.5-2.4 1.4-6.4 3.7-6.3 3.7-12.5 7.3-12.4 7.3-2.2 1-2.2 1.1h-2.5zm-12.9-39 1.6-1 5.3-3.2 5.3-3.2 6.2-3.7 6.2-3.6 5.2-3.2 5.2-3.1-.1-.4-.2-.4-2.1-1.5-2.2-1.4-11.1-6.7L61 89.4v-.8l4.6-2.8 4.7-2.8 8.7-5.2 8.7-5.1.3-.4.2-.4-.4-.5-.5-.5-1.4-.8-1.5-.8-7.4-4.6-7.4-4.5-9.2-5.6-9.3-5.6H50v79.4h1.2z"/>
  <path fill="#e87784" d="m65.8 166.5-1.5-.6-1.1-1.6-1.1-1.5-1.4-2.5-1.3-2.4-1.3-2.3-1.2-2.3-.8-1.5-.9-1.5h-.5l-.5.2-.5 1.5-.5 1.6-1.6 1.6-1.7 1.6-2 .7-2 .6-1.4-.2-1.2-.2-2.2-1-2.2-1.1-1.2-1.3-1-1.3-1-2-.9-2v-3.9l1-1.7.9-1.9 1.3-1 1.3-1.1 1.6-.6 1.6-.5h2l2.4.9 2.4.9h.5v-1.5l-1.8-3.2-1.8-3.1v-.7l1.4-.9 1.5-.9v-.9l-2.6-1.6-2.6-1.6-3.1-2-3.2-1.9-4.2-2.6-4.2-2.6.8-.5.8-.6 1.5-1.4 1.5-1.4.4-1.7.5-1.6-.2-2.6-.1-2.7-1-1.6-1-1.6-1.7-1.4-1.7-1.4-2-.4-2-.4-2 .2-1.9.2-1.3.7-1.3.7-1.3 1.3-1.3 1.4-.3 1-.4 1v4.5h-.8l-5.1-3.2L4 102l-1.6-1-1.6-1L1 59.8l.1-40.2V1h48.7v46.5H51l9.3-5.6 9.3-5.5 8.6-5.2 8.5-5.2.8-.5.8-.6h.9l9.8 6 9.8 6 7.6 4.6 7.7 4.7.6 1 .5 1.1-.1 8.7-.1 8.7-1 1.8-.9 1.7-1.2 1.1-1.1 1.2-9.8 5.8-9.7 5.7v1.3l3.2 2 3.2 1.9 7.8 4.7 7.7 4.7 1.9 2 1.9 2 1.4 3 1.5 3v18.8l-1.2 2.6-1.3 2.7-2 2.2-2 2.2-3.5 2-3.4 2-2.5 1.5-2.4 1.4-6.4 3.7-6.3 3.7-12.5 7.3L74 165l-2.2 1-2.2 1.1h-2.5zm-12.9-39 1.6-1 5.3-3.2 5.3-3.2 6.2-3.7 6.2-3.6 5.2-3.2 5.2-3.1-.1-.4-.2-.4-2.1-1.5-2.2-1.4-11.1-6.7L61 89.4v-.8l4.6-2.8 4.7-2.8 8.7-5.2 8.7-5.1.3-.4.2-.4-.4-.5-.5-.5-1.4-.8-1.5-.8-7.4-4.6-7.4-4.5-9.2-5.6-9.3-5.6H50v79.4h1.2z"/>
  <path fill="#d07391" d="m65.8 166.5-1.5-.6-1.1-1.6-1.1-1.5-1.4-2.5-1.3-2.4-1.3-2.3-1.2-2.3-.8-1.5-.9-1.5h-1l-.5 1.6-.5 1.7-1.6 1.5-1.5 1.5-2 .7-2 .8-1.4-.2-1.3-.1-2-1-2-1-1.7-2L36 152l-.7-2.4-.8-2.4.5-1.6.4-1.5.8-1.5.9-1.5 1.5-1 1.5-1 1.7-.5 1.7-.4 2.2.6 2.3.6.2.3.2.4h1.4v-1.6l-1.8-3.2-1.8-3.1v-.6l1.5-1 1.4-.8-.1-.6-.1-.6-5.5-3.3-5.6-3.4-4-2.5-4.1-2.5v-.7l1.5-1 1.6-1 .8-1.6.8-1.7.1-3 .2-3-1.2-2.2-1.2-2.3-1.7-1.1-1.7-1.2-1.5-.4-1.4-.4-2.3.2-2.3.1-1.6.8-1.6.8-.8.8-.9.7-.7 1.4-.7 1.3v4.6l-.3.1-.3.2-3.2-2-3.3-2-3.5-2.1-3.4-2V1h48.7v46.5h1.4l6.4-3.8 6.5-3.9 11.6-7 11.6-7 .8-.5.8-.5 3.4 2 3.5 2.2 13.6 8.2 13.6 8.3 1.1 1.2 1.2 1.2-.1 9-.1 8.8-1 1.8-.9 1.7-1.2 1.1-1.1 1.2-9.8 5.8-9.7 5.7v1.3l3.2 2 3.2 1.9 7.8 4.7 7.7 4.7 1.9 2 1.9 2 1.4 3 1.5 3v18.8l-1.2 2.6-1.3 2.7-2 2.2-2 2.2-3.5 2-3.4 2-2.5 1.5-2.4 1.4-6.4 3.7-6.3 3.7-12.5 7.3-12.4 7.3-2.2 1-2.2 1.1h-2.5zm-8.2-41.8 6.1-3.8 2-1.1 1.9-1.2 5.6-3.3 5.7-3.4 4.5-2.7 4.5-2.7-.1-.4-.2-.4-2.1-1.5-2.2-1.4-11.1-6.7L61 89.4v-.8l4.6-2.8 4.7-2.8 8.8-5.2 8.7-5.2.2-.6.2-.5-.5-.3-.5-.3-4.2-2.6-4.2-2.6-9.2-5.5-9.2-5.6-4.5-2.8-4.5-2.8h-1.3l-.1.5-.2.4v4.8l.1 4.7V94l.1 34.5h1.4z"/>
  <path fill="#e86d77" d="m66.6 166.7-1.4-.5-1.2-1.1-1.1-1.2-3.8-6.8-3.8-6.8H54v1.1l-.9 1.7-.8 1.7-1.5 1-1.5 1.2-1.7.5-1.8.6-1.2-.2-1.3-.2-2-1-1.8-1-1.8-1.8L36 152l-.7-2.4-.8-2.4.5-1.6.4-1.5.8-1.5.9-1.5 1.5-1 1.5-1 1.7-.5 1.7-.4 2.2.6 2.3.6.2.3.2.4h1.4v-1.6l-1.8-3.2-1.8-3.1v-.6l1.5-1 1.4-.8-.1-.6-.1-.6-5.5-3.3-5.6-3.4-4-2.5-4.1-2.5v-.7l1.5-1 1.6-1 .8-1.6.8-1.7.1-3 .2-3-1.2-2.2-1.2-2.3-1.7-1.1-1.7-1.2-1.5-.4-1.4-.4-2.3.2-2.3.1-1.6.8-1.6.8-.8.8-.9.7-.7 1.4-.7 1.3v4.6l-.3.1-.3.2-3.2-2-3.3-2-3.5-2.1-3.4-2V1h48.7v46.5h1.4l6.4-3.8 6.5-3.9 11.6-7 11.6-7 .8-.5.8-.5 3.4 2 3.5 2.2 13.6 8.2 13.6 8.3 1 1 1 1v17.8l-1 2-1 2-.7.8-.7.8-9.6 5.6-9.5 5.7-.7.7-.7.6.4.6.3.5 3.2 2 3.2 2 7.7 4.7 7.8 4.7 1.5 1.7 1.5 1.6 1.7 3.3 1.6 3.4v18l-1.4 3-1.5 3-1.6 1.9-1.7 1.8-3.4 2-3.4 2-2.5 1.5-2.5 1.5-6.8 4-7 4-12.1 7-12.2 7.2-1.8 1-1.7.8-1.3.2-1.2.2zm-8.1-42.5 7-4.1 6.1-3.7 6.2-3.6 5-3 5-3v-1.3l-2-1.3-2-1.2-11.3-7-11.3-6.8V89l-.1-.3 5.3-3.1 5.4-3.2 8.2-4.9 8.2-4.9v-1.3l-1.5-.8-1.5-.9-7.4-4.5-7.4-4.5-8.5-5.1-8.4-5.2-1-.6-.9-.7h-1.4l-.1.5-.2.4v4.8l.1 4.7V94l.1 34.5h1.4z"/>
  <path fill="#dd677b" d="m66.6 166.7-1.4-.5-1.2-1.1-1.1-1.2-3.8-6.8-3.8-6.8H54v1.1l-.9 1.7-.8 1.7-1.5 1-1.5 1.2-1.7.5-1.8.6-1.2-.2-1.3-.2-2-1-1.8-1-1.8-1.8L36 152l-.7-2.5-.7-2.4.5-1.9.5-1.8.9-1.2.9-1.1 1.3-1 1.4-1 1.7-.5 1.7-.4 2.2.6 2.3.6.2.3.2.4h1.4v-1.6l-1.8-3.2-1.8-3.1v-.6l1.5-1 1.4-.8-.1-.6-.1-.6-5.5-3.3L38 122l-4-2.5-4-2.6-.1-.3-.1-.4 1.5-.9 1.5-1 1-2 1-2v-5.5l-1-2-1-1.9-1.4-1.2-1.5-1.2-1.6-.7-1.5-.6H22l-1.8.8-1.8.8-1.1 1.1-1.2 1.2-.7 1.4-.6 1.4v4.5l-1.2-.8-1.2-.7-5.7-3.4L1 100V60L.8 20l.1-9.5.1-9.4h48.7v46.5h.4l.4.1h.5l.4-.1 4.2-2.5 4.1-2.5 2-1.2 1.9-1 6.5-4 6.6-4 3.7-2.2 3.7-2.2 2.3-1.5L89 25l9.3 5.6 9.2 5.7 8.3 5 8.3 5.1.7 1.2.6 1.3-.1 8.2-.1 8.3-1 2-1 2-.8.8-.7.8-9.6 5.6-9.5 5.7-.7.7-.7.6.4.6.3.5 3.2 2 3.2 2 7.7 4.7 7.8 4.7 1.5 1.7 1.5 1.6 1.7 3.3 1.6 3.4v18l-1.4 3-1.5 3-1.6 1.9-1.7 1.8-3.4 2-3.4 2-2.5 1.5-2.5 1.5-6.8 4-7 4-12.1 7L74 165l-1.8 1-1.7.8-1.3.2-1.2.2zm-8.1-42.5 7-4.1 6.1-3.7 6.2-3.6 5-3 5-3v-1.3l-2-1.3-2-1.2-11.3-7-11.3-6.8V89l-.1-.3 5.3-3.1 5.4-3.2 8.2-4.9 8.3-4.9-.1-.7-.2-.8-1.5-1-1.6-.8-7.4-4.6-7.4-4.5-9.7-5.8-9.6-5.8-.5.2-.6.3.2 23.5L50 96v32.3h1.4z"/>
  <path fill="#f56f48" d="m65.8 166.4-1-.5-1-1-1-1-1-2-1-2-2.4-4.3-2.4-4.4-.6-.7-.6-.7-.4.3-.3.2-.6 1.6-.7 1.7-1 1.2-1.2 1.2-1.7.8-1.8.9h-3.6l-2-1-2.1-1.2-1.1-1-1.2-1.1-1-1.8-.9-1.7-.2-2-.1-2 .8-1.9.7-1.8 1.5-1.3 1.4-1.3 1.1-.5 1.2-.5h3.8l2 1 2.1.8.4-.2.3-.2-.3-1-.2-.9-1.7-3-1.8-3.2v-.3l1.4-.7 1.4-.7.2-.3.2-.4-.2-.5-.2-.5-7.1-4.3-7.1-4.3-2.5-1.5L30 117l-.1-.3-.1-.4 1.2-.7 1.3-.7.8-1 .8-1 .6-2 .6-1.9-.2-2-.1-2.2-1-1.9-1-1.9-1.4-1.2-1.5-1.2-1.6-.7-1.5-.6H22l-1.8.8-1.8.8-1.1 1.1-1.2 1.2-.7 1.4-.6 1.4v4.5l-1.2-.8-1.2-.7-5.7-3.5-5.7-3.4V60L.8 20l.1-9.5.1-9.4h48.7v46.5h.4l.4.1h.5l.4-.1 4.2-2.5 4.1-2.5 2-1.2 1.9-1 6.5-4 6.6-4 3.7-2.2 3.7-2.2 2.3-1.5L89 25l9.3 5.6 9.2 5.7 8.3 5 8.3 5.1.7 1.2.6 1.3-.1 8.2-.1 8.3-1 2-1 2-.8.7-.7.9-9.6 5.6-9.5 5.7-.7.7-.7.6.4.6.3.5 3.2 2 3.2 2 7.7 4.7 7.8 4.7 1.5 1.7 1.5 1.6 1.7 3.3 1.6 3.4v18l-1.4 3-1.5 3-1.6 1.9-1.7 1.8-3.4 2-3.4 2-2.5 1.5-2.5 1.5-6.8 4-7 4L86 158l-12.3 7.2-1.8.8-1.8.9h-3.2zm-13-38.6 1.7-1 4.8-3L64 121l1.9-1.1 2-1.2 5.2-3.1 5.3-3.2 4.7-2.8 4.7-2.8-.1-.7-.1-.6-2.1-1.3-2.1-1.3L72.3 96 61 89.2l.1-.3.2-.3 4.7-2.8 4.7-2.8 8.7-5.2 8.8-5.2-.1-.7-.2-.8-1.5-1-1.6-.8-7.4-4.6-7.4-4.5-9.7-5.8-9.6-5.8-.5.2-.5.2v78.6l.2.6.2.6h.8z"/>
  <path fill="#e75564" d="m65.8 166.4-1-.5-1-1-1-1-1-2-1-2-2.4-4.3-2.4-4.4-.6-.7-.6-.7-.4.3-.3.2-.6 1.6-.7 1.7-1 1.2-1.2 1.2-1.7.8-1.8.9h-3.6l-2-1-2.1-1.2-1.1-1-1.2-1.1-1-1.8-.9-1.7-.2-2-.1-2 .8-1.9.7-1.8 1.5-1.3 1.4-1.3 1.1-.5 1.2-.5h3.8l2 1 2.1.8.4-.2.3-.2-.3-1-.2-.9-1.7-3-1.8-3.2v-.3l1.4-.7 1.4-.7.2-.3.2-.4-.2-.5-.2-.5-7.1-4.3-7.1-4.3-2.5-1.5L30 117l-.1-.3-.1-.4 1.2-.7 1.3-.7.8-1 .8-1 .6-2 .6-1.9-.2-2-.1-2.2-1-1.9-1-1.9-1.4-1.2-1.5-1.2-1.6-.7-1.5-.6H22l-1.8.8-1.8.8-1.1 1.1-1.2 1.2-.7 1.4-.6 1.4v4.5l-1.2-.8-1.2-.7-5.7-3.5L1 100l.2-48.7.2-48.7V1.4h48l.1 23.2v23.2h1l.9-.1 4.2-2.6 4.2-2.5 2-1.2 1.9-1 6.5-4 6.6-4 3.7-2.2 3.7-2.2 2.3-1.5L89 25l9.3 5.6 9.2 5.7 8.3 5 8.3 5.1.7 1.2.6 1.3-.1 8.2-.1 8.3-1 2-1 2-.8.7-.7.9-9.6 5.6-9.5 5.7-.7.7-.7.6.4.6.3.5 3.2 2 3.2 2 7.7 4.7 7.8 4.7 1.5 1.7 1.5 1.6 1.7 3.3 1.6 3.4v18l-1.4 3-1.5 3-1.6 1.9-1.7 1.8-3.4 2-3.4 2-2.5 1.5-2.5 1.5-6.8 4-7 4L86 158l-12.3 7.2-1.8.8-1.8.9h-3.2zm-13-38.6 1.7-1 4.8-3L64 121l1.9-1.1 2-1.2 5.2-3.1 5.3-3.2 4.7-2.8 4.7-2.8-.1-.7-.1-.6-2.1-1.3-2.1-1.3L72.3 96 61 89.2l.1-.3.2-.3 4.7-2.8 4.7-2.8 8.7-5.2 8.8-5.2-.1-.7-.2-.7-2.3-1.4-2.2-1.4-5.2-3.1-5-3.2L62 55.4l-11-6.7h-1.3v78.9l.2.6.2.6h.8z"/>
  <path fill="#b65e8a" d="m65.8 166.4-1-.5-1-1-1-1-1-2-1-2-2.4-4.3-2.4-4.4-.6-.7-.6-.7-.4.3-.3.2-.6 1.6-.7 1.7-1 1.2-1.2 1.2-1.7.8-1.8.9h-2.9l-1.2-.4-1.2-.4-1.8-1.2-1.8-1.1-1-1.6-1.1-1.5-.6-2-.6-2 .2-1.6.2-1.6 1.2-1.7 1-1.6 1.8-1 1.7-1.1 2-.2 2-.1 2.3.9 2.2.9.4-.2.3-.2-.3-1-.2-.9L48 135l-1.7-3.2.5-.4.5-.3 1.1-.6 1.1-.6v-1.1l-.8-.5-.8-.5-4.6-2.8-4.5-2.8-4.6-2.8-4.5-2.8.6-.4.6-.3 1.4-1.2 1.3-1.2.8-2 .7-2-.1-2.4-.2-2.5-.8-1.7-.8-1.7L32 100l-1.3-1.2L29 98l-1.6-.8h-5.7l-2 1-2 1-1 1.1-1 1.1-.4 1.2-.5 1v4.4l-.4-.2-.4-.1-4.9-3-4.8-3-1.6-1-1.7-1 .2-48.5.2-48.6V1.4h48l.1 23.2v23.2l.7.1.7.1 6.7-4 6.8-4 12.1-7.4 12.1-7.3.6.2.6.1 8.3 5 8.3 5.1 2.3 1.5 2.4 1.4 3.8 2.3 3.8 2.3 2.6 1.7 2.6 1.7.7 1.1.7 1.2-.1 8.2-.1 8.3-1 2-1 2-.8.7-.7.9-9.6 5.6-9.5 5.7-.7.7-.7.6.4.6.3.5 3.2 2 3.2 2 7.7 4.7 7.8 4.7 1.5 1.7 1.5 1.6 1.7 3.3 1.6 3.4v18l-1.4 3-1.5 3-1.6 1.9-1.7 1.8-3.4 2-3.4 2-2.5 1.5-2.5 1.5-6.8 4-7 4L86 158l-12.3 7.2-1.8.8-1.8.9h-3.2zm-13-38.6 1.7-1 4.8-3L64 121l1.9-1.1 2-1.2 5.2-3.1 5.3-3.2 4.7-2.8 4.7-2.8-.1-.7-.1-.6-2.1-1.3-2.1-1.3L72.3 96 61 89.2l.1-.3.2-.3 4.7-2.8 4.7-2.8 8.6-5.2 8.7-5.1.2-.5.2-.5-.2-.3-.3-.4-4.2-2.6-4.2-2.5-1-.6-1.1-.6-4.8-3-4.8-2.9-4.4-2.6-4.4-2.6-4-2.5-3.8-2.4h-1.5v79.6l.2.2.2.3h.8z"/>
  <path fill="#fb6838" d="m65.8 166.4-1-.5-1-1-1-1-1-2-1-2-2.4-4.3-2.4-4.4-.6-.7-.6-.7-.4.3-.3.2-.6 1.6-.7 1.7-1 1.2-1.2 1.2-1.7.8-1.8.9h-2.9l-1.2-.4-1.2-.4-1.8-1.2-1.8-1.1-1-1.6-1.1-1.5-.6-2-.6-2 .2-1.6.2-1.6 1.2-1.7 1-1.6 1.8-1 1.7-1.1 2-.2 2-.1 2.3.9 2.2.9.4-.2.3-.2-.3-1-.2-.9L48 135l-1.7-3.2.5-.4.5-.3 1.1-.6 1.1-.6v-1.1l-.8-.5-.8-.5-4.6-2.8-4.5-2.8-4.6-2.8-4.5-2.8.6-.4.6-.3 1.4-1.2 1.3-1.2.8-2 .7-2-.1-2.4-.2-2.5-.8-1.7-.8-1.7L32 100l-1.3-1.2L29 98l-1.6-.8h-5.7l-2 1-2 1-1 1.1-1 1.1-.4 1.2-.5 1v4.4l-.4-.2-.4-.1-4.9-3-4.8-3-1.6-1-1.7-1 .2-48.5.2-48.6V1.4h48l.1 23.2v23.2l.7.1.7.1 6.7-4 6.8-4 11.8-7.2L88 25.7l.6-.2.6-.2 4.4 2.7 4.3 2.6 5.1 3.1 5.2 3.1 4.5 2.8 4.6 2.8 2.5 1.5 2.4 1.4 1.4 1.3L125 48l-.2 9.1v9.1l-.7 1.3-.7 1.2-1.3 1.4-1.2 1.3-9.5 5.7-9.4 5.6-.5.5-.6.5.2.5.2.4 2.4 1.5 2.3 1.4 8.5 5.2 8.5 5.1 2 2.2 2 2.2 1.4 2.6 1.3 2.7v19.4l-1.1 2.3-1.1 2.4-2.2 2.3-2.2 2.4-3.4 2-3.4 2-1.6 1-1.6.9-5.3 3-5.3 3.2-9.2 5.3-9.1 5.4-5.3 3-5.3 3.2-1.8.8-1.7.9h-3.2zm-13-38.6 1.7-1 4.8-3L64 121l1.9-1.1 2-1.2 5.2-3.1 5.3-3.2 4.7-2.8 4.7-2.8-.1-.7-.1-.6-2.1-1.3-2.1-1.3L72.3 96 61 89.2l.1-.3.2-.3 4.7-2.8 4.7-2.8 8.6-5.2 8.7-5.1.2-.5.2-.5-.2-.3-.3-.4-4.2-2.6-4.2-2.5-1-.6-1.1-.6-4.8-3-4.8-2.9-4.4-2.6-4.4-2.6-4-2.5-3.8-2.4h-1.5v79.6l.2.2.2.3h.8z"/>
  <path fill="#fc6638" d="m65.8 166.4-1-.5-1-1-1-1-1-2-1-2-2.4-4.3-2.4-4.4-.6-.7-.6-.7-.4.3-.3.2-.6 1.6-.7 1.7-1 1.2-1.2 1.2-1.7.8-1.8.9h-2.9l-1.2-.4-1.2-.4-1.8-1.2-1.8-1.1-1-1.6-1.1-1.5-.6-2-.6-2 .2-1.6.2-1.6 1.2-1.7 1-1.6 1.8-1 1.7-1.1 2-.2 2-.1 2.3.9 2.2.9.4-.2.3-.2-.3-1-.2-.9L48 135l-1.7-3.2.5-.4.5-.3 1.1-.6 1.1-.6v-1.1l-.8-.5-.8-.5-4.6-2.8-4.5-2.8-4.6-2.8-4.5-2.8.6-.4.6-.3 1.4-1.2 1.3-1.2.8-2 .7-2-.1-2.4-.2-2.5-.8-1.7-.8-1.7L32 100l-1.3-1.2L29 98l-1.6-.8h-5.7l-2 1-2 1-1 1.1-1 1.1-.4 1.2-.5 1v4.4l-.4-.2-.4-.1-4.9-3-4.8-3-1.6-1-1.7-1 .2-48.3L1.4 3V1.4h48l.1 23.2v23.2l.7.1.7.1 6.7-4 6.8-4 11.8-7.2L88 25.7l.6-.2.6-.2 4.4 2.7 4.3 2.6 5.1 3.1 5.2 3.1 4.5 2.8 4.6 2.8 2.5 1.5 2.4 1.4 1.4 1.3L125 48l-.2 9.1v9.1l-.7 1.3-.7 1.2-1.3 1.4-1.2 1.3-9.5 5.7-9.4 5.6-.5.5-.6.5.2.5.2.4 2.4 1.5 2.3 1.4 8.5 5.2 8.5 5.1 2 2.2 2 2.2 1.4 2.6 1.3 2.7v19.4l-1.1 2.3-1.1 2.4-2.2 2.3-2.2 2.4-3.4 2-3.4 2-1.6 1-1.6.9-5.3 3-5.3 3.2-9.2 5.3-9.1 5.4-5.3 3-5.3 3.2-1.8.8-1.7.9h-3.2zm-13-38.6 1.7-1 4.8-3L64 121l1.9-1.1 2-1.2 5.2-3.1 5.3-3.2 4.7-2.8 4.7-2.8-.1-.7-.1-.6-2.1-1.3-2.1-1.3L72.3 96 61 89.2l.1-.3.2-.3 4.7-2.8 4.7-2.8 8.6-5.2 8.7-5.1.2-.5.2-.5-.2-.3-.3-.4-4.2-2.6-4.2-2.5-1-.6-1.1-.6-4.8-3-4.8-2.9-4.4-2.6-4.4-2.6-4-2.5-3.8-2.4h-1.5v79.6l.2.2.2.3h.8zM27.2 48v-.4h-3.6l.2.4.3.3h3.1zm-6.3-.3-.4-.1-.5.1-.4.2h1.8zm-4-1.6-.5-.4v-1.4l-1.3-.7-1.4-.7-.2.4-.2.3-1 .3-1 .2.8.8.8.8.3-.1.2-.1v.6l1.2.3 1.1.4.9-.2.8-.1zm9.4-2.1-.2-1.6.5-.5.6-.6h-.3l-.3-.2.1-1.2.2-1.2.3.5.3.4.4-.2.3-.3v-1l-.5-.9-.6-.9h-2V35h-1.8v1.4l.7.1.7.2v1.2l.1 1.2v1.3l-.1 1.3h.9l-.1 2-.1 2h1.1zm-15.9-1.7h.5l.4.6.5.5h1l-.2-1.6-.2-1.7v-.8l-1-.4-1.1-.5V37H9.2l-.2.8-.2.8-1.1 1-1.1.9.8 1 .8 1 .8.4.7.4.1-.5.2-.5zm-.1-1.2v-.2h.3v.4h-.3zm-1.8-.9v-.5l.2.3.3.2-.3.3-.2.2zm23.3 2.1v-.7h.7v-1h-.7v-1.1l.7-.7.6-.7.6-.8.5-.8 1 .1 1 .2.3.9.2 1-.3 1.4-.3 1.5h.6v-1.1l.6-.2.6-.3v-1l.5-.1.5-.2-.2.8-.2.7.4.2.3.2v-2.9h-.7v-1.3l-1.2-.2-1.1-.1H38l2-.1.6.4.7.4 1-.3 1-.2.8-.9.9-.8h.6V32l-2 .2-2 .3-.1.3-.2.4h-.9l-.2.6-.1.6v-1.1l-.1-1.2-.6.2-.5.3-.4-.5-.3-.5v-1l2.1.3 2.2.2v-4.3H41V25h.4l.4.8.3.8-.1-.8-.2-.8h.7v-1.8h-1.8l-.2-1.5-.2-1.6-.6-.1-.6-.2 1.6.2 1.6.2.2.4.3.4.4-1 .4-1.1.2.4.2.3.8.2.8.2.1-.4.1-.4v-2l-.2-2h-2.2l-.1.7-.2.7h-1.6l-.6-.2-.6-.2v-1h-1.8v-1.4h1.1v-1.1H41v-1.6L40 10l-1.2-1.2h2.6l.2 1 .2.8-.2 2-.2 2 .3.5.3.5.6-.5.6-.6v-1.4l1-.2 1-.3v-2.5l.8.7.7.6.2-.2.3-.3-.6-1.2-.6-1.2-1.4-.8-1.4-.8-.2-1-.2-1-1.2.2-1.3.2-1.2.2-1.3.2.2-.4.3-.4h1.2l.6-.4.7-.5H38l-.6-.3-.7-.3.2.9.1.9h-1.4L35 6l-.5.6v.2l-.2.2-1 .3-1 .2V6.1l-.4-.5-.6-.4v-.6h1.4v-.7l-1.3-.3-1.3-.4-.5.7-.5.8-2.4-.2-2.5-.3-.7.4-.7.4-1.7-.6-1.8-.6-.7.2-.7.2-.2-.5-.2-.5-.7.4-.7.4-1.4-.5-1.4-.5-.3.6-.3.5h-1.5l-1.5.1-.2.2-.2.2h1.9l.2.3.2.4-.5.2-.6.2L9 5.3l-1.6-.5-.2-.7-.2-.6-1 .1-.9.2-.5.1-.5.2-.6.5-.6.6-.2 1.4L2.4 8l.6.2.6.2v5H5l.4.6.5.6v1.6l-.9-.4-.9-.4-.3.3-.3.4.2.8.2.7h1.2l.4-.4.4-.4v.8H7v1.8l.5.2.5.2v1.6l.4.3.3.4-.2.7-.2.8-.7.2-.6.2v1h1.1l.3.9.3.8-.2 1.5-.2 1.4h1.5l.7-.6.7-.6v-2h-.9l.6-.3.5-.3h-1.2v-2.1h.7v-2.5h-.7L10 20l-.3-1.2.8-.8.7-.7v-2.1H10l-.2-.7-.2-.7.2-.4.2-.3h1.4v-1.4l.4-.3.4-.2.5.5.6.6-.8.7-.7.8v.6l.5.2.6.2-.2 2.2-.2 2.2.3.4.3.4.3 1.5.2 1.5-.7.2-.8.2v1.5l.6.4.7.4v1.8l.1 1.8h-1V31l.3.2.4.2v1.4h1.4V34h-.7v1.6l.3-.8.3-.7v1l1-.1 1-.2.1-1.1.1-1.1H16v-1.8h1.8v.7h1.5l-.2 1.3-.3 1.3-.5.4-.5.4v1.6l.7.2.7.2v1.6l.7.2.7.3v.6h1.3l.3-.7.2-.8-.4-.3-.5-.3 1-1.3 1-1.4V33l-.3-.6-.2-.6h-1l.2-.5.2-.5h.7l.7.8.7.7v1h1v2H27l.8-.5.9-.6v-2l-.5-.1-.6-.2v-1.1h1l.2.5.2.5h1.5l-.2.8-.1.8-.5 1.6-.5 1.6.5.1.4.1v2l.4.2.4.1-.4 1-.4 1 .2 1 .3 1h1.3zm0-7.3-.7-.1V34l1-.8 1-.8.4 1 .4.9v.5l-.6.3-.5.2-.1-.1zm-11.5-.4-.2-.4.8-.8.8-.8.1.7.2.6-.2.5-.2.5h-1.1zm17 0-.2-.3.5-.4.5-.4.4.2.4.2-.4.5-.5.5h-.5Zm-2.7-2.1V32l.2.2.3.3-.3.2-.2.2zM21 29.2l.3-.8.4-.3.4-.2v.5l.2.6-.4.5-.4.5h-.7zm10.8 0-.4-.6.2-.4.3-.4v-1.4l.2-1.4h-1v-1.4l.5-.2.5-.2V22h1.1v-.7h-.8l.2-.3.2-.2.6.5.5.4v2.7l-.7.2-.7.2v1.6l.3.4.3.3.3 1.3.2 1.3h-1.4zM26 29v-.3l.7-.9.8-.8-.1 1-.1 1.1-.7.1-.6.1zm-10.6-.4v-.4h1.1l-.2.4-.2.3h-.7zm19.4 0v-.2l-.3-1.5-.3-1.5.7.4.6.3.2.3.2.3-.2 1.1-.2 1.1h-.7zm-16.5-.3V28L17 26.6l-1.3-1.3.6-.3.6-.4.1.2h.1l.2.8v.7l.7.6.6.6v1.1h-.3Zm10.9-.5-.5-.8-.6-.6-.7-.6V25l.6-.2.6-.2.6.8.7.8v.7l.2.8.2.8h-.6zm8.8 0v-.2l.4-.3.3-.2v1.1H38Zm-15-1.1v-.1h.3v.3H23zm-2.8-2-.2-.4.4-.1.4-.2v-1.2l.7-.8.7-.7.7 1.4.7 1.4-.4.2-.3.2-1.2.3-1.2.3zm17.8-.1-.2-.3v-1.5l.4-.4.5-.4.2.2.3.2-.2 1-.3.9-.2.2-.2.3zm-13.6-.3V24h.3v.3zM17.7 22v-1h.6l.2.4.1.4-.4.7-.5.7zm11.1 0-.2-.1v-1.3h1l.1.8.2 1h-.8zm6-.3-.2-.6.3-.3.4-.4v.8l.2.6.2.5H35Zm-13.6-1v-.1h.3v.3h-.3zm2.5-.3V20h.3v.4zm-1.6-.9.2-.4h1v.8H22Zm9.2-.2-.2-.3v-1h1v-1l.7-.8.7-.8V18l-.7.7-.7.7h-.6Zm-14-1-.3-.6v-1.4h.7V15l.5.7.5.7v1.2h-1l-.1.7-.1.6zm22.7.3-.5-.2v-1l1 .2 1 .2.1.2.2.1-.5.4-.5.3h-.4zm-2-1-.2-.3.2-.5.2-.5h1v.6l-.2.6-.4.1-.3.2zm-3.1-1-.2-.4.2-.8.1-.9.4.2h.4l.1 1.2.2 1.1H35zm-11.5-.2-.4-.1v-1h.6l.2.5.2.6v.1h-.2zm9.3-4 .2-.8.2-.2v-.1l.2.1.2.2-.5.8-.5 1zm5.2-.5.2-.6V11h1.1v.6l-.4.4-.5.4h-.6zm-9-1.4V10h.8v1H29zm5.6-.5-.1-1h.4l.7.6.6.7-.3.4-.2.3h-.9ZM16 5h.4v.4H16zm-.2 35 .2-.6v-.7h-1.8v1.8h1.4zM5.7 39v-.2h-.4v.4h.4zm9.2-.5h1v-2.1h-2.1v-.9l-.4 1.2-.3 1.2.2.7.2.7.2-.4.1-.4zm28.8.2.4-.5-.5-.2-.5-.2v.2l-.3.6-.2.6h.7zm-37.2-3 .3-.8-.2-.3-.3-.4H5V36l.2.2.2.2h.9zm4.5-1.8v-1l-.8-.2h-.8l-.3-1.2-.4-1.2h-.5l.4 2 .3 2 .2.3.1.3H11zm34.9-8.7-.5-.2-.5-1-.4-.9v-.9h-1.1v2.1h1l.4.6.5.5h1.1zM6.7 23.5v-1H5v1.8h1.8zm35.7-2v-.3H42l-.2.3-.2.4h.8zm-19-17.8v-.2H23V4h.3zm5.6 0v-.2h-.4V4h.4z"/>
  <path fill="#fa6638" d="m65.8 166.4-1-.5-1-1-1-1-1-2-1-2-2.4-4.3-2.4-4.4-.6-.7-.6-.7-.4.3-.3.2-.6 1.6-.7 1.7-1 1.2-1.2 1.2-1.7.8-1.8.9h-2.9l-1.2-.4-1.2-.4-1.8-1.2-1.8-1.1-1-1.6-1.1-1.5-.6-2-.6-2 .2-1.6.2-1.6 1.2-1.7 1-1.6 1.8-1 1.7-1.1 2-.2 2-.1 2.3.9 2.2.9.4-.2.3-.2-.3-1-.2-.9L48 135l-1.7-3.2.5-.4.5-.3 1.1-.6 1.1-.6v-1.1l-.8-.5-.8-.5-4.6-2.8-4.5-2.8-4.6-2.8-4.5-2.8.6-.4.6-.3 1.4-1.2 1.3-1.2.8-2 .7-2-.1-2.4-.2-2.5-.8-1.7-.8-1.7L32 100l-1.3-1.2L29 98l-1.6-.8h-5.7l-2 1-2 1-1 1.1-1 1.1-.4 1.2-.5 1v4.4l-.4-.2-.4-.1-4.9-3-4.8-3-1.6-.9-1.7-1 .1-32.5V34.7l.3-4.5.3-4.6v5.7l.8 1.9.8 1.9.4 1 .5 1.1L6 39.7l2 2.5 1.2 1 1.2 1.1 1.8 1 1.8.8 1.4.7 1.4.6 1.7.4 1.8.5h26L46 48l-.5-.4V46h.7v-.7h-1v.9l-.6.3-.5.2h-2.8V45l1.7-.3 1.8-.2.1-1.1.2-1.1-.3-.2h-.3v-1.4H43v1l-.6.2-.6.2h-3.4v.9l.5.4.5.4-.2 1.3-.2 1.2-.6.5-.7.4-1.1-.3-1-.2v-4.2h-1.1V42l-.9.1-.9.2v1.3l.4.1.4.1.2 1.5.2 1.4-1 .2-.9.2-.3-.6-.3-.6.2-1 .1-1.2-.8-.2-.8-.3.8-.2.8-.1v-1.4h.7v-1h-.7v-1l1.1-1.3L34 37h.6v1.2l-.1 1.2.2.4.3.4.7-.2.8-.2-.2 1-.2.8h.6v-1.1l.6-.2.6-.3v-1l.5-.1.5-.2-.2.8-.2.7.4.2.3.2v-2.9l.4.1.5.2.2 1 .1 1h1l1-.2.9-.7.8-.8-.4-.3-.5-.3.7.1.8.1.3.8.3.8h.9l.2-.3.2-.3-.5-1.2-.4-1.2-.6-.9-.6-.9h.5l.6-.2-.2-3-.2-2.8.9-.4.8-.4v-1.1l-.8-.3-1-.4v-.6l.7-.2.6-.2h-1l-.5-1-.4-1v-.9h1.9l-.3-1-.3-1-.1-2.6-.2-2.6.5.7.5.7.3-1.4.2-1.4-.5-.4-.6-.4v-1.5h1v-.9l-.6-1-.7-1.1-1.2-.7L43 7V6l-.2-1-1.2.2-1.3.2-1.2.2-1.3.2.2-.4.3-.4h1.2l.6-.4.7-.5H38l-.6-.3-.7-.3.2.9.1.9h-1.4L35 6l-.5.6v.2l-.2.2-1 .3-1 .2V6.1l-.4-.5-.6-.4v-.6h1.4v-.7l-1.3-.3-1.3-.4-.5.7-.5.8-2.4-.2-2.5-.3-.7.4-.7.4-1.7-.6-1.8-.6-.7.2-.7.2-.2-.5-.2-.5-.7.4-.7.4-1.4-.5-1.4-.5-.3.6-.3.5h-1.5l-1.5.1-.2.2-.2.2h1.9l.2.3.2.4-.5.2-.6.2L9 5.3l-1.6-.5-.2-.7-.2-.6-1 .1-.9.2-.5.1-.5.2-.5.5-.6.6-.5 2-.4 2.1-.3 2.3-.3 2.3V1.4h48v46.4l.7.1.7.1 6.7-4 6.8-4 11.8-7.2L88 25.7l.6-.2.6-.2 4.4 2.7 4.3 2.6 5.1 3.1 5.2 3.1 4.5 2.8 4.6 2.8 2.5 1.5 2.4 1.4 1.4 1.3L125 48l-.2 9.1v9.1l-.7 1.3-.7 1.2-1.3 1.4-1.2 1.3-9.5 5.7-9.4 5.6-.5.5-.6.5.2.5.2.4 2.4 1.5 2.3 1.4 8.5 5.2 8.5 5.1 2 2.2 2 2.2 1.4 2.6 1.3 2.7v19.4l-1.1 2.3-1.1 2.4-2.2 2.3-2.2 2.4-3.4 2-3.4 2-1.6 1-1.6.9-5.3 3-5.3 3.2-9.2 5.3-9.1 5.4-5.3 3.1-5.3 3-1.8 1-1.7.8h-3.2zm-13-38.6 1.7-1 4.8-3L64 121l1.9-1.1 2-1.2 5.2-3.1 5.3-3.2 4.7-2.8 4.7-2.8-.1-.7-.1-.6-2.1-1.3-2.1-1.3L72.3 96 61 89.2l.1-.3.2-.3 4.7-2.8 4.7-2.8 8.6-5.2 8.7-5.1.2-.5.2-.5-.2-.3-.3-.4-4.2-2.6-4.2-2.5-1-.6-1.1-.6-4.8-3-4.8-2.9-4.4-2.6-4.4-2.6-4-2.5-3.8-2.4h-1.5v79.6l.2.2.2.3h.8zM23.3 3.7v-.2H23V4h.3zm5.7 0v-.2h-.4V4h.4zm-2.7 40.6-.2-1.3.2-.7.2-.7h.9l-.4-.2-.5-.3.3-1.2.3-1.3v1l.5-.2.5-.1.2-.9.2-.8.3 1.2.4 1.2h.5l.5-.1v2.9l-.2-.5-.3-.4-1.3.2-1.3.3.3.6.2.6.2 1 .2 1h-1.4Zm-16-3.2v-.2h.3v.4h-.3zm5.2-.9v-.5l.3.3.2.2-.2.3-.3.2zm5-.3v-.4h1.3l.4-1 .3-1V39l.1 1.3h-2.1zm23.4-4.3.3-.3h.3v.7h-.8zM32 35h-1v-1l1-.8 1-.8.4 1 .4.9v.5l-.6.3-.5.2-.1-.1zm-11.6-.4-.2-.4.8-.8.8-.8.1.7.2.6-.2.5-.2.5h-1.1zm17 0-.2-.3.5-.4.5-.4.4.2.4.2-.4.5-.5.5h-.5zm1-2.7-.2-.6v-.6h1.5l-.4.5-.4.4.5.4.4.5h-1.1zM21 29.2l.3-.8.4-.3.4-.2v.5l.2.6-.4.5-.4.5h-.7Zm10.8 0-.4-.6.2-.4.3-.4v-1.4l.2-1.4h-1v-1.4l.5-.2.5-.2V22h1.1v-.7h-.8l.2-.3.2-.2.6.5.5.4v2.7l-.7.2-.7.2v1.6l.3.4.3.3.3 1.3.2 1.3h-1.4zM26 29v-.3l.7-.9.8-.8-.1 1-.1 1.1-.7.1-.6.1zm-10.6-.4v-.4h1.1l-.2.4-.2.3h-.7zm22.6-.7v-.3l.4-.3.3-.2v1.1H38zm-17.9-3.3-.2-.4.4-.1.4-.2v-1.2l.7-.8.7-.7.7 1.4.7 1.4-.4.2-.3.2-1.2.3-1.2.3zm17.8-.1-.2-.3v-1.5l.4-.4.5-.4.2.2.3.2-.2 1-.3.9-.2.2-.2.3zm-13.6-.3V24h.3v.3h-.3ZM1.2 20.8v-1.6l.1.8.2.8-.2.8-.1.8zm20-.2v-.1h.3v.3h-.3zm10.1-1.4-.2-.3V18h1v-1l.7-.8.7-.8V18l-.7.7-.7.7h-.6zm8.7-.7-.5-.2v-1l1 .2 1 .2.1.2.2.1-.5.4-.5.3h-.4zm-2-1-.2-.3.2-.5.2-.5h1v.6l-.2.6-.4.1-.3.2zM1.5 15.2v-.7l.2.5.2.5-.3.2-.2.2zm31.2-3 .2-.8.2-.2v-.1l.2.1.2.2-.5.8-.5 1zm5.2-.5.2-.6V11h1.1v.6l-.4.4-.5.4h-.6ZM16 5h.4v.4H16z"/>
  <path fill="#cf5071" d="m65.8 166.4-1-.5-1-1-1-1-1-2-1-2-2.4-4.3-2.4-4.4-.6-.7-.6-.7-.4.3-.3.2-.6 1.6-.7 1.7-1 1.2-1.2 1.2-1.7.8-1.8.9h-2.9l-1.2-.4-1.2-.4-1.8-1.2-1.8-1.1-1-1.6-1.1-1.5-.6-2-.6-2 .2-1.6.2-1.6 1.2-1.7 1-1.6 1.8-1 1.7-1.1 2-.2 2-.1 2.3.9 2.2.9.4-.2.3-.2-.3-1-.2-.9L48 135l-1.7-3.2.5-.4.5-.3 1.1-.6 1.1-.6v-1.1l-.8-.5-.8-.5-4.6-2.8-4.5-2.8-4.6-2.8-4.5-2.8.6-.4.6-.3 1.4-1.2 1.3-1.2.8-2 .7-2-.1-2.4-.2-2.5-.8-1.7-.8-1.7L32 100l-1.3-1.2L29 98l-1.6-.8h-5.7l-2 1-2 1-1 1.1-1 1.1-.4 1.2-.5 1v4.4l-.4-.2-.4-.1-4.9-3-4.8-3-1.6-.9-1.7-1 .1-33v-33l.3-2 .3-2V31l.1 1.3.8 2.3.8 2.3 1 1.6 1 1.5 2.4 2.4 2.4 2.3 3 1.5 2.9 1.4 2 .5 2.2.6h25.2l2.7-.4L51 48l6.7-4 6.7-4 11.8-7.1L88 25.7l.6-.2.6-.2 4.4 2.7 4.3 2.6 5.1 3.1 5.2 3.1 4.5 2.8 4.6 2.8 2.5 1.5 2.4 1.4 1.4 1.3L125 48l-.2 9.1v9.1l-.7 1.3-.7 1.2-1.3 1.4-1.2 1.3-9.5 5.7-9.4 5.6-.5.5-.6.5.2.5.2.4 2.4 1.5 2.3 1.4 8.5 5.2 8.5 5.1 2 2.2 2 2.2 1.4 2.6 1.3 2.7v19.4l-1.1 2.3-1.1 2.4-2.2 2.3-2.2 2.4-3.4 2-3.4 2-1.6 1-1.6.9-5.3 3-5.3 3.2-9.2 5.3-9.1 5.4-5.3 3-5.3 3.2-1.8.8-1.7.9h-3.2zm-13-38.6 1.7-1 4.8-3L64 121l1.9-1.1 2-1.2 5.2-3.1 5.3-3.2 4.7-2.8 4.7-2.8-.1-.7-.1-.6-2.1-1.3-2.1-1.3L72.3 96 61 89.2l.1-.3.2-.3 4.7-2.8 4.7-2.8 8.6-5.2 8.7-5.1.2-.5.2-.5-.2-.3-.3-.4-4.2-2.6-4.2-2.5-1-.6-1.1-.6-4.8-3-4.8-2.9-4.4-2.6-4.4-2.6-4-2.5-3.8-2.4h-1.5v79.6l.2.2.2.3h.8zm-3.6-88.3v-4.4l.1 2.2.1 2.2v2.2l-.2 2.2zm0-16.2v-5.8l.1 2.9.1 2.9v2.9l-.2 2.9zm0-17.1V3.4l.1 1.5.2 1.5-.2 1.3-.1 1.3zM49 2.5l-.2-.7-6-.1-6-.1 6.4-.1h6.2v1.7h-.3ZM1.4 2.2v-.8h5.4l5.4.2h-5l-4.9.2-.4.6-.5.6zm14-.7.1-.2.3.2.2.3h-.9zm1.3 0 .3-.2.2.2.2.3h-.9zm5.6 0 3.1-.1 3.1.1 3.1.1H19.3zm10.3 0 .6-.1.4.1.5.2H32zm3.4 0h.4v.3H36z"/>
  <path fill="#f45a37" d="m66.5 166.4-1-.3-1.3-1.2-1.3-1.2-.8-1.5-.8-1.5-1-1.8-1-1.7-2-3.7-2-3.6H54l-.3 1.4-.4 1.4-1.2 1.5-1.1 1.5-1.4.8-1.4.8-1.6.3-1.6.2-1.5-.4-1.5-.4-2-1.2-1.8-1.2-1-1.6-1.1-1.5-.6-2-.6-2 .2-1.6.2-1.6 1.2-1.7 1-1.6 1.8-1 1.7-1.1 1.8-.2 1.9-.1 2.3 1 2.4.9.4-.3.3-.2v-1.2l-1.9-3.4-1.9-3.5 1.6-1 1.6-1.1-.2-.6v-.6l-5.7-3.4-5.7-3.5-4.1-2.5-4.2-2.6.6-.3.6-.4 1.4-1.2 1.3-1.2.8-2 .7-2-.1-2.4-.2-2.5-.8-1.7-.8-1.7-1.2-1.2-1.3-1.2L29 98l-1.6-.8h-5.7l-2 1-2 1-1 1.1-1 1.1-.4 1.2-.5 1v4.4l-.4-.2-.4-.1-4.9-3-4.8-3-1.6-.9-1.7-1 .1-33v-33l.3-2 .3-2V31l.1 1.3.8 2.3.8 2.3 1 1.6 1 1.5 2.4 2.4 2.4 2.3 3 1.5 2.9 1.4 2 .6 2.2.5h25.2l2.7-.4L51 48l6.7-4 6.7-4 11.8-7.1L88 25.7l.6-.2.6-.2 4.4 2.7 4.3 2.6 5.1 3.1 5.2 3.1 4.5 2.8 4.6 2.8 2.5 1.5 2.4 1.4 1.4 1.3L125 48l-.2 9.1v9.1l-.7 1.3-.7 1.2-1.3 1.4-1.2 1.3-9.5 5.7-9.4 5.6-.5.5-.6.5.2.5.2.4 2.4 1.5 2.3 1.4 8.5 5.2 8.5 5.1 2 2.2 2 2.2 1.4 2.6 1.3 2.7v19.4l-1.1 2.3-1.1 2.4-2.2 2.3-2.2 2.4-3.4 2-3.4 2-2.5 1.4-2.5 1.5-5 3-5.2 3-4.8 2.8-4.7 2.7-1.6.9-1.6.9-2 1.1-1.9 1.2-3.1 1.8-3.2 1.8H78l-1.9 1.1-1.8 1.2-2.5 1.1-2.5 1.2h-1.7zM58 124.8l6.5-3.9 1.4-.8 1.4-.8 6.6-3.9 6.5-4 3.9-2.3 3.8-2.4v-1.3l-1.5-1-1.6-1-1.8-1-1.8-1-4.4-2.8-4.4-2.7-5.5-3.4-5.6-3.3v-.5l.8-.4.8-.4 8-4.7 7.9-4.8 3.9-2.4 3.8-2.4 1-.5 1-.6v-.7l-.3-.4-.3-.4-4.2-2.6-4.2-2.5-1-.6-1.1-.6-4.8-3-4.8-2.9-4.4-2.6-4.4-2.6-4-2.5-3.8-2.4h-1.5v79.6l.2.2.2.3h1.2zm-8.7-85.3v-4.4l.1 2.2.1 2.2v2.2l-.2 2.2zm0-16.2v-5.8l.1 2.9.1 2.9v2.9l-.2 2.9zm0-17.1V3.4l.1 1.5.2 1.5-.2 1.3-.1 1.3zM49 2.5l-.2-.7-6-.1-6-.1 6.4-.1h6.2v1.7h-.3ZM1.4 2.2v-.8h5.4l5.4.2h-5l-4.9.2-.4.6-.5.6zm14-.7.1-.2.3.2.2.3h-.9zm1.3 0 .3-.2.2.2.2.3h-.9zm5.6 0 3.1-.1 3.1.1 3.1.1H19.3zm10.3 0 .6-.1.4.1.5.2H32zm3.4 0h.4v.3H36z"/>
  <path fill="#ea4b4e" d="m66.5 166.4-1-.3-1.3-1.2-1.3-1.2-.8-1.5-.8-1.5-1-1.8-1-1.7-2-3.7-2-3.6H54l-.3 1.4-.4 1.4-1.2 1.5-1.1 1.5-1.4.8-1.4.8-1.6.3-1.6.2-1.5-.4-1.5-.4-2-1.2-1.8-1.2-1-1.6-1.1-1.5-.6-2-.6-2 .2-1.6.2-1.6 1.2-1.7 1-1.6 1.8-1 1.7-1.1 1.8-.2 1.9-.1 2.3 1 2.4.9.4-.3.3-.2v-1.2l-1.9-3.4-1.9-3.5 1.6-1 1.6-1.1-.2-.6v-.6l-5.7-3.4-5.7-3.5-4.1-2.5-4.2-2.6.6-.3.6-.4 1.4-1.2 1.3-1.2.8-2 .7-2-.1-2.4-.2-2.5-.8-1.7-.8-1.7-1.2-1.2-1.3-1.2L29 98l-1.6-.8h-5.7l-2 1-2 1-1 1.1-1 1.1-.4 1.2-.5 1v4.4l-.4-.2-.4-.1-4.9-3-4.8-3-1.6-.9-1.7-1 .1-33.3V33.2h.5l.7 2 .6 2.2 1.4 2 1.4 2L7 42.5l1.3 1.2 2.3 1.6 2.4 1.5 2.8 1 2.7 1h15l15 .2 2-1 1.8-1 9.3-5.5 9.2-5.5 8.8-5.3 9-5.4h.8l4.2 2.6 4.3 2.6 5.1 3.1 5.2 3.1 4.5 2.8 4.6 2.8 2.5 1.5 2.4 1.4 1.4 1.3L125 48l-.2 9.1v9.1l-.7 1.3-.7 1.2-1.3 1.4-1.2 1.3-9.5 5.7-9.4 5.6-.5.5-.6.5.2.5.2.4 2.4 1.5 2.3 1.4 8.5 5.2 8.5 5.1 2 2.2 2 2.2 1.4 2.6 1.3 2.7v19.4l-1.1 2.3-1.1 2.4-2.2 2.3-2.2 2.4-3.4 2-3.4 2-2.5 1.4-2.5 1.5-5 3-5.2 3-4.8 2.8-4.7 2.7-1.6.9-1.6.9-2 1.1-1.9 1.2-3.1 1.8-3.2 1.8H78l-1.9 1.1-1.8 1.2-2.5 1.1-2.5 1.2h-1.7zM58 124.8l6.5-3.9 1.4-.8 1.4-.8 6.6-3.9 6.5-4 3.9-2.3 3.8-2.4v-1.3l-1.5-1-1.6-1-1.8-1-1.8-1-4.4-2.8-4.4-2.7-5.5-3.4-5.6-3.3v-.5l.8-.4.8-.4 8-4.7 7.9-4.8 3.9-2.4 3.8-2.4 1-.5 1-.6v-.7l-.3-.4-.3-.4-4.2-2.6-4.2-2.5-1-.6-1.1-.6-4.8-3-4.8-2.9-4.4-2.6-4.4-2.6-4-2.5-3.8-2.4h-1.5v79.6l.2.2.2.3h1.2z"/>
  <path fill="#b74c7a" d="m66.5 166.4-1-.3-1.3-1.2-1.3-1.2-.8-1.5-.8-1.5-1-1.8-1-1.7-2-3.7-2-3.6H54l-.3 1.4-.4 1.4-1.2 1.5-1.1 1.5-1.4.8-1.4.8-1.6.3-1.6.2-1.5-.4-1.5-.4-2-1.2-1.8-1.2-1-1.6-1.1-1.5-.6-2-.6-2 .2-1.6.2-1.6 1.2-1.7 1-1.6 1.8-1 1.7-1.1 1.8-.2 1.9-.1 2.3 1 2.4.9.4-.3.3-.2v-1.2l-1.9-3.4-1.9-3.5 1.6-1 1.6-1.1-.2-.6v-.6l-5.7-3.4-5.7-3.5-4.1-2.5-4.2-2.6.6-.3.6-.4 1.4-1.2 1.3-1.2.8-2 .7-2-.1-2.4-.2-2.5-.8-1.7-.8-1.7-1.2-1.2-1.3-1.2L29 98l-1.6-.8h-5.7L20 98l-1.8.8-1 1-1 1-.7 1.3-.6 1.4v4.4h-.6l-3.1-2-3.2-2-3.2-2-3.2-2V66.6L1.3 33l.9 2.3.8 2.3 1.1 1.7 1.2 1.6 1.4 1.5 1.5 1.4 2.3 1.6 2.4 1.5 2.8 1 2.7 1h15.2l15 .2 1-.6.7-.5h.8l6.4-3.9 6.5-3.8 11.6-7 11.6-7 .8-.5.8-.5 4.6 2.8 4.6 2.8 1 .6 1 .6.5.2.5.3 2.2 1.4 2.2 1.5 1.7 1 1.7.9.5.3.5.4 2.8 1.6 2.9 1.7 1 .8 1.1.8h.5l3 2 3 2 .4.7.4.7-.2 8.9V66l-.7 1.3-.7 1.2-1.3 1.4-1.2 1.3-9.5 5.7-9.4 5.6-.5.5-.6.5.2.5.2.4 2.4 1.5 2.3 1.4 8.5 5.2 8.5 5.1 2 2.2 2 2.2 1.4 2.6 1.3 2.7v19.4l-1.1 2.3-1.1 2.4-2.2 2.3-2.2 2.4-3.4 2-3.4 2-2.5 1.4-2.5 1.5-5 3-5.2 3-4.8 2.8-4.7 2.7-1.6.9-1.6.9-2 1.1-1.9 1.2-3.1 1.8-3.2 1.8H78l-1.9 1.1-1.8 1.2-2.5 1.1-2.5 1.2h-1.7zM58 124.8l6.5-3.9 1.4-.8 1.4-.8 6.6-3.9 6.5-4 3.9-2.3 3.8-2.4v-1.3l-1.5-1-1.6-1-1.8-1-1.8-1-4.4-2.8-4.4-2.7-5.5-3.4-5.6-3.3v-.5l.8-.4.8-.4 8-4.7 7.9-4.8 2.4-1.5 2.5-1.5 2.3-1.4 2.3-1.5h.1l.1-.1-.2-.7-.2-.7-4.3-2.6-4.2-2.6-1.1-.6-1.1-.6-4.8-3-4.8-3-2.8-1.7-2.8-1.6-5.5-3.3-5.4-3.4-.8.2h-.9v79.3l.3.4.2.3h1.2z"/>
  <path fill="#dc4355" d="m66.5 166.4-1-.3-1.3-1.2-1.3-1.2-.8-1.5-.8-1.5-1-1.8-1-1.7-2-3.7-2-3.6H54l-.3 1.4-.4 1.4-1.2 1.5-1.1 1.5-1.4.8-1.4.8-1.6.3-1.6.2-1.5-.4-1.5-.4-2-1.2-1.8-1.2-1-1.6-1.1-1.5-.6-2-.6-2 .2-1.6.2-1.6 1.2-1.7 1-1.6 1.8-1 1.7-1.1 1.8-.2 1.9-.1 2.3 1 2.4.9.4-.3.3-.2v-1.2l-1.9-3.4-1.9-3.5 1.6-1 1.6-1.1-.2-.6v-.6l-5.7-3.4-5.7-3.5-4.1-2.5-4.2-2.6.6-.3.6-.4 1.4-1.2 1.3-1.2.8-2 .7-2-.1-2.4-.2-2.5-.8-1.7-.8-1.7-1.2-1.2-1.3-1.2L29 98l-1.6-.8h-5.7L20 98l-1.8.8-1 1-1 1-.7 1.3-.6 1.4v4.4h-.6l-3.1-2-3.2-2-3.2-2-3.2-2V66.6L1.3 33l.9 2.3.8 2.3 1.1 1.7 1.2 1.6 1.4 1.5 1.5 1.4 2.3 1.6 2.4 1.5 2.8 1 2.7 1h15.2l15 .2 1-.6.7-.5h.8l6.4-3.9 6.5-3.8 11.6-7 11.6-7 .8-.5.8-.5 4.6 2.8 4.6 2.8 1 .6 1 .6.5.2.5.3 2.2 1.4 2.2 1.5 1.7 1 1.7.9.5.3.5.4 2.8 1.6 2.9 1.7 1 .8 1.1.8h.5l3 2 3 2 .4.7.4.7-.2 8.7v8.7l-.9 1.6-.8 1.6-1 1-.9 1-9.4 5.6-9.4 5.6-.8.7-.9.7.4.6.4.6 3 1.8 3 1.8 7.9 4.9 8 4.8 1.6 1.8 1.7 1.9 1.5 3 1.5 3v18.7l-1.3 2.6-1.3 2.7-1.8 2-1.9 2-3.4 2-3.4 2-1.6 1-1.6 1-5.2 3-5.3 3.1-5.3 3-5.3 3.1-7 4.2-7 4H78l-1.9 1.2-1.8 1.2-2.5 1.1-2.5 1.2h-1.7zM58 124.8l6.5-3.9 1.5-.8 1.5-.8 9.8-6 9.8-5.8.7-.6.6-.7-.2-.4-.2-.5-7.1-4.4-7.2-4.4-6-3.6-6-3.7-.1-.3-.1-.3.6-.2.6-.2 13-7.8 13-7.8v-.9l-.5-.5-.4-.6-4-2.4-4-2.4-1.1-.6-1.1-.6-4.8-3-4.8-3-2.8-1.7-2.8-1.6-5.5-3.3-5.4-3.4-.8.2h-.9v79.3l.3.4.2.3h1.2z"/>
  <path fill="#ee4a3c" d="m66.1 166.2-1.4-.7-1-1.2-1-1.3-3.7-6.7-3.6-6.7H54l-.6 1.8-.6 1.8-1.3 1.4-1.3 1.4-1.4.7-1.4.6h-4l-2-1-2.1-1.1-1-1-.9-.8-.9-1.6-.9-1.7-.4-1.5-.4-1.6.6-1.9.6-1.8 1.3-1.5 1.2-1.5 1.4-.6 1.5-.7h3.9l2 .9 2.1.8.5-.3.5-.4v-.9l-1.5-2.8-1.4-2.8-.5-.5-.5-.6v-.7l1.2-.6 1.2-.6.4-.4.4-.5-.2-.6-.3-.6-1.4-.8-1.5-.8-5.5-3.4-5.4-3.4-2.8-1.7-2.8-1.7.9-.5.8-.5 1.3-1.3L34 113l.7-2.4.6-2.3-.2-1.7-.2-1.6-.7-1.6-.7-1.6-.9-1.1-.9-1-1.3-1-1.4-1-2.2-.5-2.3-.6-2 .4-2 .5-1.3.8-1.5.8-1 1.1-1.2 1.2-.6 1.6-.5 1.5v3.6l-.6-.6-.6-.5-5.9-3.6-5.8-3.5V66.5L1.3 33l.9 2.3.8 2.3 1.1 1.7 1.2 1.6 1.4 1.5 1.5 1.4 2.3 1.6 2.4 1.5 2.8 1 2.7 1h15.2l15 .2 1-.6.7-.5h.8l6.4-3.9 6.5-3.8 11.6-7 11.6-7 .8-.5.8-.5 4.6 2.8 4.6 2.8 1 .6 1 .6.5.2.5.3 2.2 1.4 2.2 1.5 1.7 1 1.7.9.5.3.5.4 2.8 1.6 2.9 1.7 1 .8 1.1.8h.5l3 2 3 1.9.3 1 .5 1-.2 8.5v8.4l-.9 1.6-.8 1.6-1 1-.9 1-9.4 5.6-9.4 5.6-.8.7-.9.7.4.6.4.6 3 1.8 3 1.8 7.9 4.9 8 4.8 1.6 1.8 1.7 1.9 1.5 3 1.5 3v18.7l-1.3 2.6-1.3 2.7-1.8 2-1.9 2-3.4 2-3.4 2-1.6 1-1.6 1-5.2 3-5.3 3.1-5.3 3-5.3 3.1-7 4.2-7 4H78l-1.9 1.2-1.8 1.2-2.5 1.1-2.5 1.2h-1.7zm-13.4-38 1.7-1 6-3.7 6.1-3.7 3.2-1.9 3.2-2 7-4.2 7-4.2.8-.6.6-.7-.2-.4-.2-.5-7-4.3-7-4.2-3.3-2.1-3.4-2.1-3-1.8-2.9-1.8.9-.6.8-.5 12.8-7.6 12.8-7.7-.1-.7-.1-.8-4.4-2.7-4.4-2.7-1-.6-1.1-.5-4.8-3-4.8-3-2.8-1.7-2.8-1.6-5.5-3.3-5.4-3.4-1 .2h-.8V128l.3.5.2.6h.9z"/>
  <path fill="#ec433d" d="m66.1 166.2-1.4-.7-1-1.2-1-1.3-3.7-6.7-3.6-6.7H54l-.6 1.8-.6 1.8-1.3 1.4-1.3 1.4-1.4.7-1.4.6h-4l-2-1-2.1-1.1-1-1-.9-.8-.9-1.6-.9-1.7-.4-1.5-.4-1.6.6-1.9.6-1.8 1.3-1.5 1.2-1.5 1.4-.6 1.5-.7h3.9l2 .9 2.1.8.5-.3.5-.4v-.9l-1.5-2.8-1.4-2.8-.5-.5-.5-.6v-.7l1.2-.6 1.2-.6.4-.4.4-.5-.2-.6-.3-.6-1.4-.8-1.5-.8-5.5-3.4-5.4-3.4-2.8-1.7-2.8-1.7.9-.5.8-.5 1.3-1.3L34 113l.7-2.4.6-2.3-.2-1.7-.2-1.6-.7-1.6-.7-1.6-.9-1.1-.9-1-1.3-1-1.4-1-2.2-.5-2.3-.6-2 .4-2 .5-1.3.8-1.5.8-1 1.1-1.2 1.2-.6 1.6-.5 1.5v3.6l-.6-.6-.6-.5-5.9-3.6-5.8-3.5V79l-.2-21.2.2.2.2.2.1 2 .1 2.2v1l.1 1.2h.6l.5-.2 1-.7 1-.8.7-1 .6-1 1.3-.3 1.4-.2.2-1 .3-1 .6-1.3.7-1.4.5-.7.5-.6h1.3l1.4.2v-2.8l.4-.7.4-.7-.5-.4-.4-.3-.3-.8-.2-.8 2.6.7 2.6.8 15-.2h15.1V104l.2 12.3.2 12.4.4.3.3.4 2-1 1.9-1.1 6-3.7 6.1-3.7 3.2-1.9 3.2-2 7-4.2 7-4.2.8-.6.6-.7-.2-.4-.2-.5-7-4.3-7-4.2-3.3-2.1-3.4-2.1-3-1.8-2.9-1.8.9-.6.8-.5 12.8-7.6 12.8-7.7-.1-.7-.1-.8-4.4-2.7-4.4-2.7-1-.6-1.1-.5-4.8-3-4.8-3L65 57l-2.8-1.6-5.4-3.3-5.5-3.3h-.9V48h.7l6.4-3.9 6.5-3.8 11.6-7 11.6-7 .8-.5.8-.5 4.6 2.8 4.6 2.8 1 .6 1 .6.5.2.5.3 2.2 1.4 2.2 1.5 1.7 1 1.7.9.5.3.5.4 2.8 1.6 2.9 1.7 1 .8 1.1.8h.5l3 2 3 1.9.3 1 .5 1-.2 8.5v8.4l-.9 1.6-.8 1.6-1 1-.9 1-9.4 5.6-9.4 5.6-.8.7-.9.7.4.6.4.6 3 1.8 3 1.8 7.9 4.9 8 4.8 1.6 1.8 1.7 1.9 1.5 3 1.5 3v18.7l-1.3 2.6-1.3 2.7-1.8 2-1.9 2-3.4 2-3.4 2-1.6 1-1.6 1-5.2 3-5.3 3.1-5.3 3-5.3 3.1-7 4.2-7 4H78l-1.9 1.2-1.8 1.2-2.5 1.1-2.5 1.2h-1.7zM3.6 65.6v-.3h-.8l.2.3.2.4h.4z"/>
  <path fill="#e93b3e" d="m66.1 166.2-1.4-.7-1-1.2-1-1.3-3.7-6.7-3.6-6.7H54l-.6 1.8-.6 1.8-1.3 1.4-1.3 1.4-1.4.7-1.4.6h-4l-2-1-2.1-1.1-1-1-.9-.8-.9-1.6-.9-1.7-.4-1.5-.4-1.6.6-1.9.6-1.8 1.3-1.5 1.2-1.5 1.4-.6 1.5-.7h3.9l2 .9 2.1.8.5-.3.5-.4v-.9l-1.5-2.8-1.4-2.8-.5-.5-.5-.6v-.7l1.2-.6 1.2-.6.4-.4.4-.5-.2-.6-.3-.6-1.4-.8-1.5-.8-5.5-3.4-5.4-3.4-2.8-1.7-2.8-1.7.9-.5.8-.5 1.3-1.3L34 113l.7-2.4.6-2.3-.2-1.7-.2-1.6-.7-1.6-.7-1.6-.9-1.1-.9-1-1.3-1-1.4-1-2.2-.5-2.3-.6-2 .4-2 .5-1.3.8-1.5.8-1 1.1-1.2 1.2-.6 1.6-.5 1.5v3.6l-.6-.6-.6-.5-5.9-3.6-5.8-3.5V86.6l-.1-13.4.5 1.6.5 1.6v2.3l.7 1 .7.8.6-1.2.5-1.2.8-.8.7-.7H8l.2-.8.2-.8v-1.4l.8-.7.9-.6-.2.8-.2.8.6-.5.6-.5v-.8l.8-.5.9-.4.2-.5.2-.5h-.7l.2-.5.2-.5 1-.2 1-.3-.2-.3-.2-.4.7-1.2.6-1.2.6-.2.5-.1V64l.3-1 .6-.6.5-.7h1.6l1.3-1.5 1.2-1.5-.2-.7-.1-.7.3-.9.4-.8v.9l.7-.4.6-.3.2.5.2.5.6-.2.5-.2-.2-.3-.2-.4 1.1-1 1.2-1.2.2.5.3.4.4-.7.4-.7v-.8h-1.1v-1.1l-1-.3-.9-.4.5-.3.6-.3 11.3-.2 11.4-.3v54.6l.2 12.3.2 12.4.4.3.3.4 2-1 1.9-1.1 6-3.7 6.1-3.7 3.2-1.9 3.2-2 7-4.2 7-4.2.8-.6.6-.7-.2-.4-.2-.5-7-4.3-7-4.2-3.3-2.1-3.4-2.1-3-1.8-2.9-1.8.9-.6.8-.5 12.8-7.6 12.8-7.7-.1-.7-.1-.8-4.4-2.7-4.4-2.7-1-.6-1.1-.5-4.8-3-4.8-3-2.8-1.7-2.8-1.6-5.4-3.3-5.5-3.3h-.6v-.5l6.6-4 6.7-3.9 11.6-7 11.6-7 .8-.5.8-.5 4.6 2.8 4.6 2.8 1 .6 1 .6.5.2.5.3 2.2 1.4 2.2 1.5 1.7 1 1.7.9.5.3.5.4 2.8 1.6 2.9 1.7 1 .8 1.1.8h.5l3 2 3 1.9.3 1 .5 1-.2 8.5v8.4l-.9 1.6-.8 1.6-1 1-.9 1-9.4 5.6-9.4 5.6-.8.7-.9.7.4.6.4.6 3 1.8 3 1.8 7.9 4.9 8 4.8 1.6 1.8 1.7 1.9 1.5 3 1.5 3v18.7l-1.3 2.6-1.3 2.7-1.8 2-1.9 2-3.4 2-3.4 2-1.6 1-1.6 1-5.2 3-5.3 3.1-5.3 3-5.3 3.1-7 4.2-7 4H78l-1.9 1.2-1.8 1.2-2.5 1.1-2.5 1.2h-1.7zM17 65.8v-.2h-.4v.4h.4zm2.4-2.5v-.2h-.3v.4h.3zm-.3-.7v-.2h-.4v.4h.4z"/>
  <path fill="#e63340" d="m66.1 166.2-1.4-.7-1-1.2-1-1.3-3.7-6.7-3.6-6.7H54l-.6 1.8-.6 1.8-1.3 1.4-1.3 1.4-1.4.7-1.4.6h-4l-2-1-2.1-1.1-1-1-.9-.8-.9-1.6-.9-1.7-.4-1.5-.4-1.6.6-1.9.6-1.8 1.3-1.5 1.2-1.5 1.4-.6 1.5-.7h3.9l2 .9 2.1.8.5-.3.5-.4v-.9l-1.5-2.8-1.4-2.8-.5-.5-.5-.6v-.7l1.2-.6 1.2-.6.4-.4.4-.5-.2-.6-.3-.6-1.4-.8-1.5-.8-5.5-3.4-5.4-3.4-2.8-1.7-2.8-1.7.9-.5.8-.5 1.3-1.3L34 113l.7-2.4.6-2.3-.2-1.7-.2-1.8-1-2-.9-1.9-1.6-1.4-1.7-1.4-1.7-.6-1.8-.6H22l-1.8.8-1.8.8-1.5 1.4-1.4 1.5-.6 1.6-.5 1.5v3.6l-.6-.6-.6-.5-3.8-2.3-3.7-2.3-2.2-1.3-2.2-1.3v-4.5l.1-4.5.2 1.1v1l.7 3 .6 2.9H4l.4-.7.4-.6.7.1.6.2V97H5l.9-1.5.8-1.4.4-.2.4-.1v1.1h.7l.5-.5.5-.6.3-1.1.2-1.2.4-.4.3-.4.7-1.2.6-1.1h1.8l.6-.6.5-.4-.1-.9-.2-.8h.9l.8-1.4.8-1.4 1.3-1.3 1.3-1.3.3-.7.4-.7.8-.2 1-.2.1-1 .2-1 .7-.3.7-.3h-.9v-1.7l.5-.5.5-.4.4.2.4.3v1h.4l.7-.8.7-.8-.7-.1-.8-.1v-1l1-.5 1-.6.2.8.2.8V71l1.1-1 1.1-1v-2.6l.8-.6.7-.5.5.6.4.6.5-1 .5-1.1.3-1 .2-1 .9-.5.8-.6V60h1.5l.5-.5.5-.5v-.4l-.5.2-.5.2v-1.2l.6-1 .6-.9 1.3-1.3 1.3-1.3.2.7.2.7h.6l.5-.6.4-.5-.5-.4-.5-.3h-1l.6-.6.6-.6-1.1-1-1.2-1H48l1.5-.2V104l.2 12.3.2 12.4.4.3.3.4 2-1 1.9-1.1 6-3.7 6.1-3.7 3.2-1.9 3.2-2 7-4.2 7-4.2.8-.6.6-.7-.2-.4-.2-.5-7-4.3-7-4.2-3.3-2.1-3.4-2.1-3-1.8-2.9-1.8.9-.6.8-.5 12.8-7.6 12.8-7.7v-1.2l-.6-.6-.7-.5-1.2-.7L85 69l-7.4-4.5-7.4-4.5-9.7-5.8-9.6-5.9 1.4-.7 1.3-.7 4.1-2.6 4.2-2.6h.4l2.8-1.8 3-1.7.5-.4.5-.3 3.9-2.4 3.9-2.3 1.4-.9 1.4-.8 1.3-.8 1.2-.7 3.4-2 3.3-2.1 9.9 6 9.8 5.9 7.7 4.7 7.7 4.7.5 1 .6 1-.2 8.6v8.5l-.9 1.6-.8 1.6-1 1-.9 1-9.4 5.6-9.4 5.6-.8.7-.9.7.4.6.4.6 3 1.8 3 1.8 7.9 4.9 8 4.8 1.6 1.8 1.7 1.9 1.5 3 1.5 3v18.7l-1.3 2.6-1.3 2.7-1.8 2-1.9 2-3.4 2-3.4 2-1.6 1-1.6 1-5.2 3-5.3 3.1-5.3 3-5.3 3.1-7 4.2-7 4H78l-1.9 1.2-1.8 1.2-2.5 1.1-2.5 1.2h-1.7zm-48-86.7.3-.2.2.2.2.2H18zm2-1.4h.4v.3H20z"/>
  <path fill="#e5333e" d="m66.1 166.2-1.4-.7-1-1.2-1-1.3-3.7-6.7-3.6-6.7H54l-.6 1.8-.6 1.8-1.3 1.4-1.3 1.4-1.4.7-1.4.6h-4l-2-1-2.1-1.1-1-1-.9-.8-1-1.8-1-1.7-.1-2-.2-2 .8-1.9.8-1.8 1.3-1.1 1.2-1.1 1.2-.5 1.1-.5h3.8l2 .9 2.1.8.5-.4.5-.3v-.9l-1.5-2.8-1.4-2.8-.5-.5-.5-.6v-.7l1.2-.6 1.2-.6.4-.5.4-.5-.3-.5-.3-.6-4.7-2.8-4.8-2.9-.5-.4-.5-.5-4.4-2.6-4.4-2.6.7-.3.6-.4 1.5-1.4L34 113l.6-2.1.7-2.2-.2-2.1-.2-2.1-1.1-2.2-1.2-2.1-1-.8-1.2-.9-1.5-.8-1.6-.8h-5.7l-2 1-1.9.9-1.1 1.1-1.1 1.2-.6 1.3-.5 1.3v3.9h-.3l-2.8-1.8-2.7-1.9-.2-.3v-.2h-.8l-2.5-1.5-2.5-1.5-.2-.1-.2-.2.5-.2.4-.1v-1l.7-.2.8-.3.8 1 .9.8-.2.6-.3.5h.8l.2-.3.2-.4.5.4.5.4.2 1 .2.9 1.6.8 1.6.8H13l.2-1 .2-1 .5-.8.5-1v-1.2h1.3l.5-.5.4-.5-.7-.6-.6-.5.5-.3.5-.3.4.2.5.1.6-.2.5-.2-.4-.5-.4-.5.4-.6.5-.5h.9l.7-1 .7-.8.6.2.6.2-.2.5-.2.5h.7l1-.5 1-.6.6.2.6.2-.2.4-.2.3.7.5.8.6H28v-.8l-.6-.7-.6-.6h1.5l.2-.4.3-.4-.3-1.2-.2-1.2-.5.2-.4.2-.3-.6-.2-.6.5-.7.6-.8.5-.6.5-.6h1l.3-1.2.4-1.2 1-.8.9-.9.6-1.5.7-1.5v-.3h-1.1v-1.7l.2-.6.3-.5h1.2l.6.5.7.5H37l.4-.5.4-.4.1-1.4.2-1.4.5-.4.6-.4-.4-.3-.4-.4.2-.8.3-.7h1v.6l.7-.1.7-.2v1.5l.5-.5.6-.5v-.8h.7V70l.6-1.3.7-1.4.3-1.1.2-1.1v-1.3l-.1-1.3.8-1.2 1-1.2.2-.7.2-.8h-1.1l-.2-1-.3-.8-.8.8-.9.8.3-1 .3-1.1v-1.4l-.1-1.5.3-.7.4-.8.4.2.3.2-.1-1-.1-1-.7-.1-.6-.2.2.7.2.7-.8.7-.7.6h-2.8l.8-.6.8-.6.5-.4.4-.3V50H41l-1.9-.1 3.7-.1 3.7-.1H48l1.5-.2V104l.2 12.3.2 12.4.4.3.3.4 2-1 1.9-1.1 6-3.7 6.1-3.7 3.2-1.9 3.2-2 7-4.2 7-4.2.8-.6.6-.7-.2-.4-.2-.5-7-4.3-7-4.2-3.3-2.1-3.4-2.1-3-1.8-2.9-1.8.9-.6.8-.5 12.8-7.6 12.8-7.7V71l-1.4-.9-1.4-.8-3.1-1.9-3.1-2-1.3-.6-1.2-.8-1.7-1-1.7-1-2.7-1.7-2.7-1.7-2.8-1.7-2.8-1.7-.6-.3-.6-.4-1.5-.8-1.6-.9-1-.8-1.2-.8h-.4l-1.6-1-1.5-1.1-1-.5-1-.4.7-.1.7-.2.8-.6 1-.7 4-2.4 4-2.4.6-.3.6-.2 2.4-1.5 2.4-1.6 1.7-1 1.7-1 1-.6 1-.5 2.8-1.8 2.8-1.7.7-.5.7-.4.5-.3.5-.2 2.4-1.5 2.4-1.5h.5l1-.9 1.1-.8.8.3.7.4 2.3 1.5 2.4 1.6h.4l1.9 1.2 1.8 1.2 5 3 4.9 3 1.9 1.1 2 1.2 1.3.9 1.5.9v.3l.2.2h.6l3.6 2.2 3.5 2.2.7.9.8.9-.2 8.6v8.7l-.9 1.6-.8 1.6-1 1-.9 1-9.4 5.6-9.4 5.6-.8.7-.9.7.4.6.4.6 3 1.8 3 1.8 7.9 4.9 8 4.8 1.6 1.8 1.7 1.9 1.5 3 1.5 3v18.7l-1.3 2.6-1.3 2.7-1.8 2-1.9 2-3.4 2-3.4 2-1.6 1-1.6 1-5.2 3-5.3 3.1-5.3 3-5.3 3.1-7 4.2-7 4H78l-1.9 1.2-1.8 1.2-2.5 1.1-2.5 1.2h-1.7zM46.4 64.1l-.2-.6h-.7v1.3l.3.2.2.3.3-.3.3-.3zm1.5-6.3-.2-.5v1.8l.2-.5.2-.4zm.7-.2-.2-.6v2l.2-.3.2-.5zM46.4 55h.4l.5.5.4.4-.3-1-.2-1.1-.3-.7-.4-.6-.3.3-.3.3-.2 1.6-.1 1.6.1-.6.2-.7zm2.3.2v-.5l-.3-.2-.4-.2v1.4h.7zm-2.6-3.6-.2-.2v.9l.2-.2.3-.2zm-35 51.8-.1-.3.6-.2.7-.2.2.2.2.2-.2.3-.2.3h-.9zm-2.4-2.2-.3-.3.6-.2.6-.2.2.2.2.1-.3.4-.2.4H9zm-7.3-5.8v-4.5l.2.2.2.2.1 4.3.1 4.2h-.6zm15-1 .6-.6.3.2.4.2v.7h-1.9zM22.6 83v-.2h.4v.4h-.4zm13.8-9v-.4h.7l-.2.4-.2.3h-.3zm-.1-5.2.2-1 1-1 1.2-1 .7-.1.8-.1.2 1 .3 1.1-.9.7-.8.6h-2.3v.8h-.6zm5.2 0-.2-.2V68h2.2l-.2.4-.1.5h-.7l-.7.2zm-8.2-2.6-.5-.5v-.5H34v1.4h-.2zm.3-2v-.6l.2.4.2.5-.2.2-.3.2zm7-1.9V62l.3.3.4.2v.3h-.7zm-5.3-.1V62h.4v.3zm8.4-2 .2-.5v-.6l-.2-.6h.8v2h-1.1zm-5.1-.4-.4-.4.2-1 .2-1.1-1.1.2-1.1.2.6-1 .6-.9 1.3-1.3 1.3-1.2.2.4.2.5-.7 1.7-.6 1.7.3.8.3.8-.2.5-.2.5H39zm2.4-3.2.2-.4 1-.1 1-.2-.2.5-.2.5h-1l-1 .2z"/>
  <path fill="#ed2a3d" d="m66.1 166.2-1.4-.7-1-1.2-1-1.3-3.7-6.7-3.6-6.7H54l-.6 1.8-.6 1.8-1.3 1.4-1.3 1.4-1.4.7-1.4.6h-4l-2-1-2.1-1.1-1-1-.9-.8-1-1.8-1-1.7-.1-2-.2-2 .8-1.9.8-1.8 1.3-1.1 1.2-1.1 1.2-.5 1.1-.5h3.8l2 .9 2.1.8.5-.4.5-.3v-.9l-1.5-2.8-1.4-2.8-.5-.5-.5-.6v-.7l1.2-.6 1.2-.6.4-.5.4-.5-.3-.5-.3-.6-4.7-2.8-4.8-2.9-.5-.4-.5-.5-4.4-2.6-4.4-2.6.7-.3.6-.4 1.5-1.4L34 113l.6-2.1.7-2.2-.2-2.1-.2-2.2-1.2-2.2-1.2-2.2-2-1.3-2-1.4-2-.4-2.2-.4-1.9.4-1.8.4-1.4.6-1.3.5v-1.3l1.3-.2 1.2-.2.7-.9.7-.9h1.3l.2-.7.2-.8.8.1.8.2v.7l-.2.8.9.2.9.3.8-.2h.8v-7.8l.1-.5.1-.4H30l.3-1.2.4-1.2 1-.8.9-.9.6-1.5.7-1.5V78l.5-.6.6-.7.4.4.4.4H37l.4-.5.4-.4.1-1.4.2-1.4.6-.4.6-.4.4-.9.4-.8h.6l.6-.2v1.5l.5-.5.6-.5v-.8h.6l.2-1 .3-1.2 1.1-1.3 1.1-1.3.7-1 .6-1 .5.2.4.2.6-2.5.5-2.6v-2.6l.1-2.6.2-.2.1-.1v50l.2 12.3.2 12.4.4.3.3.4 2-1 1.9-1.1 6-3.7 6.1-3.7 3.2-1.9 3.2-2 7-4.2 7-4.2.8-.6.6-.7-.2-.4-.2-.5-7-4.3-7-4.2-3.3-2.1-3.4-2.1-3-1.8-2.9-1.8.9-.6.8-.5 12.8-7.6 12.8-7.7V71l-1.4-.9-1.4-.8-3.1-1.9-3.1-2-1.3-.6-1.2-.8-1.7-1-1.7-1-2.7-1.7-2.7-1.7-4.6-2.7-4.6-2.7-1.5-1-1.4-1h-.4l-2.2-1.5-2.1-1.4v-.1l.2-.1 5.1-3.2 5.1-3.1.6-.3.6-.2 2.4-1.5 2.4-1.6 1.7-1 1.7-1 1-.6 1-.5 2.8-1.8 2.8-1.8.5-.2.5-.3 1.4-.8 1.5-1 1.2-.6 1.2-.7.7-.5.7-.4 1-.6.9-.6h1l1.9 1.2 2 1.3 1.9 1 2 1.1.4.4.5.4 5.3 3.3 5.4 3.2L111 39l2.3 1.3 1.3 1 1.3 1h.4l3.6 2.2 3.5 2.2.7.9.8.9-.2 8.6v8.7l-.9 1.6-.8 1.6-1 1-.9 1-9.4 5.6-9.4 5.6-.8.7-.9.7.4.6.4.6 3 1.8 3 1.8 7.9 4.9 8 4.8 1.6 1.8 1.7 1.9 1.5 3 1.5 3v18.7l-1.3 2.6-1.3 2.7-1.8 2-1.9 2-3.4 2-3.4 2-1.6 1-1.6 1-5.2 3-5.3 3.1-5.3 3-5.3 3.1-7 4.2-7 4H78l-1.9 1.2-1.8 1.2-2.5 1.1-2.5 1.2h-1.7zM55.8 47.5v-.2l-.4-.2-.3-.2-.2.4-.2.3zM13.6 107l-.7-.7-1.3-.8-1.3-.8v-.3l1.4.8 1.4.8.2-.3.3-.3.4-1 .4-1.2v4.4h-.1zm-5-3.3-.2-.4.4.2.4.3v.3h-.3zm-.8-.5v-.2H8v.4h-.3zm6.7-.4h.3v.3h-.3Zm1.4-2.8v-.2h.4v.4h-.4Zm33.2-48.5v-.9l.2.5.2.4-.2.4-.2.5z"/>
  <path fill="#e42b40" d="m66.1 166.2-1.4-.7-1-1.2-1-1.3-3.7-6.7-3.6-6.7H54l-.6 1.8-.6 1.8-1.3 1.4-1.3 1.4-1.4.7-1.4.6h-4l-2-1-2.1-1.1-1-1-.9-.8-1-1.8-1-1.7-.1-2-.2-2 .8-1.9.8-1.8 1.3-1.1 1.2-1.1 1.2-.5 1.1-.5h3.8l2 .9 2.1.8.5-.4.5-.3v-.9l-1.5-2.8-1.4-2.8-.5-.5-.5-.6v-.7l1.2-.6 1.2-.6.4-.5.4-.5-.3-.5-.3-.6-4.7-2.8-4.8-2.9-.5-.4-.5-.5-4.4-2.6-4.4-2.6.7-.3.6-.4 1.5-1.4L34 113l.6-2.1.7-2.2-.2-2.1-.2-2.2-1.2-2.2-1.2-2.2-2-1.3-2-1.4-2-.4-2.2-.4-1.9.4-1.8.4-1.4.6-1.3.5v-1.3l1.3-.2 1.2-.2.7-.9.7-.9h1.3l.2-.7.2-.8.8.1.8.2v.7l-.2.8.9.2.9.3.8-.2h.8v-7.8l.1-.5.1-.4H30l.3-1.2.4-1.2 1-.8.9-.9.6-1.5.7-1.5V78l.5-.6.6-.7.4.4.4.4H37l.4-.5.4-.4.1-1.4.2-1.4.6-.4.6-.4.4-.9.4-.8h.6l.6-.2v1.5l.5-.5.6-.5v-.8h.6l.2-1 .3-1.2 1.1-1.3 1.1-1.3.7-1 .6-1 .5.2.4.2.6-2.5.5-2.6v-2.6l.1-2.6.2-.2.1-.1v50l.2 12.3.2 12.4.4.3.3.4 2-1 1.9-1.1 6-3.7 6.1-3.7 3.2-1.9 3.2-2 7-4.2 7-4.2.8-.6.6-.7-.2-.4-.2-.5-7-4.3-7-4.2-3.3-2.1-3.4-2.1-3-1.8-2.9-1.8.9-.6.8-.5 12.8-7.6 12.8-7.7V71h.6l2-1.2 2.1-1.2 2.3-1.3 2.3-1.3 3.4-2 3.3-2 5.3-3.2 5.3-3 3.5-2.2 3.5-2.2 1-1.3 1-1.4v-1.2l.4.7.4.6-.2 8.6v8.5l-.9 1.6-.8 1.6-1 1-.9 1-9.4 5.6-9.4 5.6-.8.7-.9.7.4.6.4.6 3 1.8 3 1.8 7.9 4.9 8 4.8 1.6 1.8 1.7 1.9 1.5 3 1.5 3v18.7l-1.3 2.6-1.3 2.7-1.8 2-1.9 2-3.4 2-3.4 2-1.6 1-1.6 1-5.2 3-5.3 3.1-5.3 3-5.3 3.1-7 4.2-7 4H78l-1.9 1.2-1.8 1.2-2.5 1.1-2.5 1.2h-1.7zM13.6 107l-.7-.7-1.3-.8-1.3-.8v-.3l1.4.8 1.4.8.2-.3.3-.3.4-1 .4-1.2v4.4h-.1zm-5-3.3-.2-.4.4.2.4.3v.3h-.3zm-.8-.5v-.2H8v.4h-.3zm6.7-.4h.3v.3h-.3Zm1.4-2.8v-.2h.4v.4h-.4zm51.5-42h.4v.3h-.4zm-.7-.3v-.2h.4v.4h-.4zm-17.6-6.2v-.9l.2.5.2.4-.2.4-.2.5zm6.3-.5v-.2h.4v.4h-.4zm-1.3-1.8.3-.3.2.3.2.2H54zm.6-1v-.6h.9v-1l.2-.9.3-.3.3-.3.4.7.4.7-.4 1-.3.8h-.7l-.5.2-.6.3zm1.8-2.5v-.2H56v.4h.4zM55 46h.3v.3H55zm5-3v-.2h.3v.3zm56.2-.4.2-.3.3.3.2.2h-.9zm-54.4-.7v-.2h.3v.4h-.3zm52.2-.7V41h.3v.4h-.3zm-46.2-2.8V38h.3v.4zm.8-.4.2-.3.3.3.2.2h-1zm1.6-1v-.2h.4v.3zm32.7-1.2-.2-.2V35l.5-.2.6-.2.7.4.6.5-.2.3-.2.2h-1.5zm-24.2-4.1v-.2h.3v.3zm1-.3V31l.6-.4.5-.5-.2.6-.2.6zm2.2-1.5v-.2h.3v.4H82zm.7-.2v-.3l1.4-.7 1.3-.7.2.5.2.4-1.3.6-1.4.6h-.4zm4.6-3v-.1h.3v.3h-.3zm.7-.3V26h.3v.4z"/>
  <path fill="#ae346a" d="m66.1 166.2-1.4-.7-1-1.2-1-1.3-3.7-6.7-3.6-6.7H54l-.6 1.8-.6 1.8-1.3 1.4-1.3 1.4-1.4.7-1.4.6h-4l-2-1-2.1-1.1-1-1-1-.9-.9-1.8-.9-1.8-.2-1.8-.2-1.8.6-1.6.6-1.6 1.5-1.5 1.5-1.5 1-.4 1.2-.5h3.8l2 .9 2.1.8.5-.4.5-.3v-.9l-1.5-2.8-1.4-2.8-.5-.5-.5-.6v-.7l1.2-.6 1.2-.6.4-.5.4-.5-.3-.5-.3-.6-4.6-2.8-4.7-2.8-1-.7-1-.7-3.6-2.2-3.6-2.1-.2-.3-.1-.3 1-.7 1-.6 1-1.4.9-1.3.5-1.5.5-1.4v-4.1l-.7-2-.7-2-.3-.2-.3-.2-.6-1-.6-1 1 .5 1.1.6v1.3l1 1.6.8 1.7-.2.5-.2.4.7.2.7.2.4-.5.5-.5h-.6l.6-.9.6-.8h-.7l.2-.6.2-.5.3.2.4.2.8-.8.9-.7 1 .1 1 .2.6-.4.6-.5v-.7l.4-.2.5-.2h-1.3l.4-.7.3-.7v-2l.6-.6.5-.6h.7l-.2-1-.2-1.1h1.1l-.3-.9-.4-.8.2-.8.2-.8.4.5.3.5-.1-1.1-.2-1.2.3.2.3.2v-1.2l-.3.3-.4.2-.2-.4-.2-.4h.9l-.4-.4-.5-.4V85l.9-1 .9-1 .2-1.6.2-1.6.1-5 .2-4.9.2-4.7.2-4.8.2-.1.1-.2V104l.2 12.3.2 12.4.4.3.3.4 2-1 1.9-1.1 6-3.7 6.1-3.7 3.2-1.9 3.2-2 7-4.2 7-4.2.8-.6.6-.7-.2-.4-.2-.5-7-4.3-7-4.2-3.3-2.1-3.4-2.1-3-1.8-2.9-1.8.9-.6.8-.5 12.8-7.6 12.8-7.7v-.9l4.6-2.8 4.9-3 8.8-5.2 8.9-5.3 2.6-1.5 2.7-1.6 1.1-1 1.2-.8.7-1.4.6-1.5.2.6.3.6-.2 8.4v8.4l-.9 1.6-.8 1.6-1 1-.9 1-9.4 5.6-9.4 5.6-.8.7-.9.7.4.6.4.6 3 1.8 3 1.8 7.9 4.9 8 4.8 1.6 1.8 1.7 1.9 1.5 3 1.5 3v18.7l-1.3 2.6-1.3 2.7-1.8 2-1.9 2-3.4 2-3.4 2-1.6 1-1.6 1-5.2 3-5.3 3.1-5.3 3-5.3 3.1-7 4.2-7 4H78l-1.9 1.2-1.8 1.2-2.5 1.1-2.5 1.2h-1.7zm-52.5-59.4-.7-.7.4.2.5.3.3-.8.3-.8v2.6h-.2zM31.4 99v-.2h.4v.3zm-3-1.9.2-.2.2.2.3.3h-1zm-6.7-.3.2-.3.2.3.3.2h-1zm2-.3v-.2h.3v.4h-.3zm21.7-4.8.2-.3h.3v.7H45zm-.2-3.3v-.2h.3v.3z"/>
  <path fill="#d92444" d="m66.1 166.2-1.4-.7-1-1.2-1-1.3-3.7-6.7-3.6-6.7H54l-.6 1.8-.6 1.8-1.3 1.4-1.3 1.4-1.4.7-1.4.6h-4l-2-1-2.1-1.1-1-1-1-.9-.9-1.8-.9-1.8-.2-1.8-.2-1.8.6-1.6.6-1.6 1.5-1.5 1.5-1.5 1-.4 1.2-.5h3.8l2 .9 2.1.8.5-.4.5-.3v-.9l-1.5-2.8-1.4-2.8-.5-.5-.5-.6v-.7l1.2-.6 1.2-.6.4-.5.4-.5-.3-.5-.3-.6-4.6-2.8-4.7-2.8-1-.7-1-.7-3.6-2.2-3.6-2.1-.2-.3-.1-.3 1-.7 1-.6 1-1.4.9-1.3.5-1.5.5-1.4v-4.1l-.7-2-.7-2-.3-.2-.3-.2-.6-1-.6-1 1 .5 1.1.6v1.3l1 1.6.8 1.7-.2.5-.2.4.7.2.7.2.4-.5.5-.5h-.6l.6-.9.6-.8h-.7l.2-.6.2-.5.3.2.4.2.8-.8.9-.7 1 .1 1 .2.6-.4.6-.5v-.7l.4-.2.5-.2h-1.3l.4-.7.3-.7v-2l.6-.6.5-.6h.7l-.2-1-.2-1.1h1.1l-.3-.9-.4-.8.2-.8.2-.8.4.5.3.5-.1-1.1-.2-1.2.3.2.3.2v-1.2l-.3.3-.4.2-.2-.4-.2-.4h.9l-.4-.4-.5-.4V85l.9-1 .9-1 .2-1.6.2-1.6.1-5 .2-4.9.2-4.7.2-4.8.2-.1.1-.2V104l.2 12.3.2 12.4.4.3.3.4 1.8-1 1.9-1 5.6-3.4 5.7-3.5 6.1-3.6 6.2-3.7L83 110l5.2-3.2v-1.3l-2.6-1.7-2.6-1.7-10.8-6.5-10.8-6.5.6-.5.6-.5 6-3.5 6-3.5 6.9-4.1 6.8-4 .2-.7.2-.7 4.6-2.8 4.6-2.7 8.8-5.2 8.9-5.3 3.4-2 3.4-2.2.7-.9.8-.9.2-.8.2-.8.2.1.3.2v16.8l-.9 1.8-.8 1.8-1.3 1.2-1.3 1.3-9.7 5.8-9.7 5.8v2l3.2 1.9 3.1 2 7.8 4.7L123 98l1.8 2 1.8 1.9 1 2 1.1 2 .6 2 .5 1.8V124l-.5 2-.5 2-.9 1.8-.9 1.7-2 2.2-2 2.1-3.3 2-3.4 2-2.5 1.5-2.5 1.5-6.3 3.7-6.4 3.7-12.4 7.3-12.5 7.3-2.2 1-2.2 1h-1.8zm-52.5-59.4-.7-.7.4.2.5.3.3-.8.3-.8v2.6h-.2zM31.4 99v-.2h.4v.3zm-3-1.9.2-.2.2.2.3.3h-1zm-6.7-.3.2-.3.2.3.3.2h-1zm2-.3v-.2h.3v.4h-.3zm21.7-4.8.2-.3h.3v.7H45zm-.2-3.3v-.2h.3v.3z"/>
  <path fill="#db263d" d="m66.2 166.2-1.5-.6-1-1.2-.9-1.1-1.8-3.4-1.9-3.4-.9-1.7-.8-1.7-1-1.7-1-1.8H54l-.3.8-.4.8-.2 1-.2 1-1.3 1.2-1.2 1.2-1.3.7-1.3.6-1.3.3-1.3.2-1.6-.4-1.6-.5-.4-.4-.4-.5 1.6.5 1.5.6.8-.5.8-.4v-1.3l-.2-1.2.8-.1.8-.1.4-1 .4-1 .3-.5.2-.5v-3.4l-.2-3.3v-.2l-.1-.1v-.6h-.7l.2-.3.2-.3-.6-.7-.5-.8h-1.2l-.7-.5-.7-.5h-1l-1.1-.2 1-.1 1-.2 1.8.6 1.8.6.4.3.3.4h2V139l-.8-1.6-.7-1.5-1-2-1-1.9v-.4l1.2-.6 1.3-.6.2-.7.1-.7h1.6l1.6-1 1.8-1.2 5.3-3.2 5.3-3.2 6.1-3.6 6.2-3.7L83 110l5.2-3.2v-1.3l-2.6-1.7-2.6-1.7-10.8-6.5-10.8-6.5.6-.5.6-.5 6-3.5 6-3.5 6.8-4 6.8-4.1.4-.7.3-.6 4-2.4 4-2.4.2-.4.3-.4v.6l4.5-2.7 4.5-2.7.2-.3.1-.2 2-1 2.1-1v-.5l.7-.3.8-.2 2.7-1.6 2.7-1.6 2.7-1.8 2.7-1.7.6-1.4.6-1.4h.5v16.8l-.9 1.8-.8 1.8-1.3 1.2-1.3 1.3-9.7 5.8-9.7 5.8v2l3.2 1.9 3.1 2 7.8 4.7L123 98l1.8 2 1.8 1.9 1 2 1.1 2 .6 2 .5 1.8V124l-.5 2-.5 2-.9 1.8-.9 1.7-2 2.2-2 2.1-3.3 2-3.4 2-2.5 1.5-2.5 1.5-6.3 3.7-6.4 3.7-12.4 7.3-12.5 7.3-2.2 1-2.2 1h-1.8zm-30.7-17.8-.2-1.4.2-1 .2-1.2.7-1.3.6-1.3 1.5-1.2 1.4-1.2.9-.2.8-.2-.1.3-.2.3-1.2.6-1.3.6-.3.8-.4.9h-1l-.5.8-.4.8-.2 2.6-.2 2.7zm2-1.5v-.5h1v1.1h-1.1zm2-3.7v-.4l.3.2.2.2-.2.3-.3.2zm6.4-17-3-2-.4-.3-.3-.3-1.4-.6-1.3-.7v-.5l-1.2-.4-1.2-.5v-.7l.2.2h.3l2 1 1.9 1 1.5 1 1.5.8.7.2h.7l.2-.6.2-.7h1l.2-.4.2-.3.2-3 .1-3.1.4-1.6.3-1.6.2-4 .2-4.1-.3-2.2-.4-2v2.5l-.4.3-.4.2-.9-.8-.8-.8v.9l-.9.7-.9.7v.8l.4-.5.5-.4h1l-.3 1.2-.2 1.1-.5.4-.5.4v2.2l-.6.5-.5.5-1-.4-1-.4-.2-.6-.2-.6h-1l.3.6.4.7v1.4l-.6.2-.5.2H39l-.2-1-.2-1h-.7v.3l.1.4-.8.5-1 .5v1.6h-.4l-.4-.1h-.5l-.5-.1.5-1.7.5-1.7v-4l-.7-2-.7-2-.3-.2-.3-.2-.6-1-.6-1 1 .5 1.1.6v1.3l1 1.6.8 1.7-.2.5-.2.4.7.2.7.2.4-.5.5-.5h-.6l.6-.9.6-.8h-.7l.2-.6.2-.5.3.2.4.2.8-.8.9-.7 1 .1 1 .2.6-.4.6-.5v-.7l.4-.2.5-.2h-1.3l.4-.7.3-.7v-2l.6-.6.5-.6h.7l-.2-1-.2-1.1h1.1l-.3-.9-.4-.8.2-.8.2-.8.4.5.3.5-.1-1.1-.2-1.2.3.2.3.2v-1.2l-.3.3-.4.2-.2-.4-.2-.4h.9l-.4-.4-.5-.4V85l.9-1 .9-1 .2-1.6.2-1.6.1-5 .2-4.9.2-4.7.2-4.8.2-.1.1-.2V128h-.6zm-3.4-20.5-.7-.3-.2-.4-.3-.4v1.8l1-.1.9-.2zm6.3-6.3-.2-.4v-1.4l.2-1.3H48v2.5l.4.7.4.7.1-.1.2-.2zm-2.1-1.7v-1.5l-.3-.2-.1-.1-.6.4-.6.5.1.9.1.9.4.5.3.4.4-.1.4-.2zm1.9-3-.2-.3v1l.2-.3.2-.2zm.1-5.6-.2-.6-.2-.6-.3.2-.4.2v1.1h1.1zM36.2 120l-.3-.4.4.2.4.3v.3h-.3zm-2-1v-.3l.6.2.5.2v.2h-1.1zm3.2-1.6v-.5h1.1v.6l-.6.2-.5.2zm-6.9-.5-.1-.3 1.1-.8 1.2-.7h.5v1.4h1l.2.3.2.4h-3.9zm4.2-.1-.3-.5-.3-.6-.2-.6h.7l-.2-.5-.2-.5 1.4.2 1.5.2V113l.3-.2.4-.2.4.3.4.4-.5.6-.4.5.1.1.1.1 1 .4.8.4-1.1.2-1.1.3-.2.7-.2.8-.4-.6-.4-.6h-.7l.2.5.2.5h-1zm-1.2-2.6v-.2h.4v.4h-.4Zm5.3-.9v-.3h.7v.7h-.7zm-25.2-6.4-.7-.7.4.2.5.3.3-.8.3-.8v2.6h-.2zM31.4 99v-.2h.4v.3zm-3-1.9.2-.2.2.2.3.3h-1zm-6.7-.3.2-.3.2.3.3.2h-1zm2-.3v-.2h.3v.4h-.3zm21.7-4.8.2-.3h.3v.7H45zm-.2-3.3v-.2h.3v.3z"/>
  <path fill="#d31e45" d="m66.2 166.2-1.5-.6-1-1.2-.9-1.1-1.8-3.4-1.9-3.4-.9-1.7-.8-1.7-1-1.7-1-1.8H54l-.3.8-.4.8-.2 1-.2 1-1.3 1.2-1.2 1.2-1.3.7-1.3.6-1.3.3-1.3.2-1.6-.4-1.6-.5-.4-.4-.4-.5 1.6.5 1.5.6.8-.5.8-.4v-1.3l-.2-1.2.8-.1.8-.1.4-1 .4-1 .3-.5.2-.5v-3.4l-.2-3.3v-.2l-.1-.1v-.6h-.7l.2-.3.2-.3-.6-.7-.5-.8h-1.2l-.7-.5-.7-.5h-1l-1.1-.2 1-.1 1-.2 1.8.6 1.8.6.4.3.3.4h2V139l-.8-1.6-.7-1.5-1-2-1-1.9v-.4l1.2-.6 1.3-.6.2-.7.1-.7h1.6l1.6-1 1.8-1.2 5.3-3.2 5.3-3.2 6.1-3.6 6.2-3.7L83 110l5.2-3.2v-1.3l-2.6-1.7-2.6-1.7-10.8-6.5-10.8-6.5.6-.5.6-.5 6-3.5 6-3.5 6.6-3.9 6.5-3.9.9-1 .9-1 14-8.4 14.2-8.3 2.7-1.8 2.7-1.7.6-1.4.7-1.4h.4v16.8l-.9 1.8-.8 1.8-1.3 1.2-1.3 1.3-9.7 5.8-9.7 5.8v2l3.2 1.9 3.1 2 7.8 4.7L123 98l1.8 2 1.8 1.9 1 2 1.1 2 .6 2 .5 1.8V124l-.5 2-.5 2-.9 1.8-.9 1.7-2 2.2-2 2.1-3.3 2-3.4 2-2.5 1.5-2.5 1.5-6.3 3.7-6.4 3.7-12.4 7.3-12.5 7.3-2.2 1-2.2 1h-1.8zm-30.8-19v-1l.1.5.2.4-.2.4-.1.5zm4.8-7.3v-.2h.4v.4h-.4zm1.1-.4v-.2h.4v.4h-.4Zm4.6-13.4-3-1.9-.4-.3-.3-.3-1.4-.6-1.3-.7v-.5l-.7-.3-.7-.2.1-.2.2-.1 1.5.7 1.6.7 1.5 1 1.5.8.7.2h.7l.2-.6.2-.7h1l.2-.4.2-.3.2-3 .1-3.1.4-1.4.3-1.5.2-6.9.2-6.8.2-.2.1-.1V128h-.6zm-8.5-5.3v-.2h.4v.4h-.4zm-1-.7v-.2h.3v.4h-.3zm-1.8-1v-.2h.3v.3zm-3.9-2.5v-.2h.4v.4h-.4zM49.2 97v-2l.1 1 .2 1-.2 1-.1 1z"/>
  <path fill="#b52559" d="m66.2 166.2-1.4-.7-.8-.8-.8-.9L61 160l-2.1-3.7-.8-1.5-.7-1.5-1-1.8-1-1.7v-4.1l.6-1 .7-.8-.4-.7-.3-.7.4-.8.5-.8v-2.7l-1-.8-1-.8v-.9l1-.6.8-.7v-2l-.6-.6-.7-.6-.3.4-.4.4-.2-.3-.2-.4.7-.6.7-.6v-1.2l-1.6.1-1.5.2-.2-.3-.2-.4 1.6-1 1.7-1.1 5-3 4.9-3 6.1-3.6 6.2-3.7L83 110l5.2-3.2v-1.3l-2.6-1.7-2.6-1.7-10.8-6.5-10.8-6.5.6-.5.6-.5 6-3.5 6-3.5 6.9-4 6.8-4.1.2-.5.1-.5 3.4-2 3.5-2.1 7-4.2 7-4.2 6-3.5 6-3.6L123 51l1.3-1.4v-1.4h.6V65l-.9 1.8-.8 1.8-1.3 1.2-1.3 1.3-9.7 5.8-9.7 5.8v2l3.2 1.9 3.1 2 7.8 4.7L123 98l1.8 2 1.8 1.9 1 2 1.1 2 .6 2 .5 1.8V124l-.5 2-.5 2-.9 1.8-.9 1.7-2 2.2-2 2.1-3.3 2-3.4 2-2.5 1.5-2.5 1.5-6.3 3.7-6.4 3.7-12.4 7.3-12.5 7.3-2.2 1-2.2 1h-1.8zm-22.4-9.1-.6-.2-.8-.3-.8-.3.1-.2.2-.2 1.9.5 1.8.6 1.1-.2 1.1-.2-.9.4-.8.3h-1.8zm4.5-.9.4-.4.2.2.2.2-.6.2-.7.3zm1.1-.4v-.2h.4v.3zm2.2-2.1.8-.8.4-.7.5-.7v.7l-.7 1.2-.7 1.1h-1zM53 151v-.5l.3.3.2.2-.2.2-.3.3zm-17.6-4v-.9l.1.5.2.4-.2.4-.1.5zm19 .5h.3v.3h-.3zm-8-7.5-.2-.3.7.2.7.1v.3h-1zm-6.2-.2v-.2h.4v.4h-.4zm1.1-.4v-.2h.4v.4h-.4Zm3.6 0 .3-.3.2.3.2.2h-.9zm-2.4-.4.2-.2.2.2.3.2h-1zm1.2 0 .5-.2.2.2.2.2h-1.4zm7.1-1v-.2h.4v.4h-.4Zm-.8-8-.2-.1.7-.5.8-.4-.3.3-.2.4H52l-.2.3-.3.2h-.7l-.7.1zm-2-2.7-.9-.7h1.2l.3-1 .4-1.1v-7.2l-.2-7.2.3-5.4.2-5.5v14.4l.1 14.4H49zm-2-1.5-.2-.4.4.2.4.3v.3h-.3Zm-.8-.5v-.2h.3v.4h-.3zm-2.1-1.2-1.6-1h-.7l-1-1-1-.8H38l.2-.2.2-.2 1.6.7 1.5.7.7.7.6.7h.9l.6.7.6.7h-.2zm-5.7-3.4v-.2h.4v.4h-.4zm-1-.7v-.2h.3v.4h-.3zm-1.8-1v-.2h.3v.3zm-3.9-2.5v-.2h.4v.4h-.4zM49.2 97v-2l.1 1 .2 1-.2 1-.1 1z"/>
  <path fill="#cb1c4a" d="m66.2 166-1-.3-1-.8-1-1-.6-1.2-.7-1.3-.4-.5-.4-.6-1.8-3.5-1.8-3.5-1-1.8-1-1.7v-4.1l.6-1 .7-.8-.4-.7-.3-.7.4-.8.5-.8v-2.7l-1-.8-1-.8v-.9l1-.6.8-.7v-2l-.6-.6-.7-.6-.3.4-.4.4-.2-.3-.2-.4.7-.6.7-.6v-1.2l-1.6.1-1.5.2-.2-.3-.2-.4 1.6-1 1.7-1.1 3.3-2 3.2-2h.4l1.6-1 1.5-1.1h.5l6-3.6 6-3.6 5.3-3.1 5.2-3.2v-1.3l-1.5-1-1.5-1-6-3.7-6-3.6-6-3.5-5.8-3.5v-.7h.5l4-2.4 4.1-2.4 3.5-2 3.6-2 5.6-3.4 5.6-3.4.1-.6.2-.5 3.6-2.2 3.6-2.1 6.7-4 6.7-4 6-3.5 6-3.6 1.3-1.3 1.3-1.4v-1.4h.5v16.8L124 67l-.9 1.8-1.8 1.6-1.7 1.6h-.6l-2.5 1.6L114 75h-.4l-6.2 3.8-6.3 3.7-.3.4-.2.4v.9l.7.6.7.7 2.2 1.2 2.2 1.3 6 3.7 6.1 3.8h.7l.4.5.4.4 1.6.9 1.6.8 1.6 1.8 1.6 1.8 1 1.7 1 1.8.8 2.3.7 2.2v14.4l-.6 2-.5 1.9-.9 1.7-.9 1.8-2 2.2-2.1 2.2-1.7 1-1.8.8-2 1.3-2.2 1.2-6 3.5-6 3.5-9.3 5.4-9.4 5.4-1.2.8-1.3.8-4.2 2.5-4.2 2.5-1.9.9-1.8 1-1.3-.1h-1.4zm-22.4-9-.6-.1-.8-.3-.8-.3.1-.2.2-.2 1.9.5 1.8.6 1.1-.2 1.1-.2-.9.4-.8.3h-1.8zm4.5-.8.4-.4.2.2.2.2-.6.2-.7.3zm1.1-.4v-.2h.4v.3zm2.2-2.1.8-.8.4-.7.5-.7v.7l-.7 1.2-.7 1.1h-1zM53 151v-.5l.3.3.2.2-.2.2-.3.3zm-17.6-4v-.9l.1.5.2.4-.2.4-.1.5zm19 .5h.3v.3h-.3zm-8-7.5-.2-.3.7.2.7.1v.3h-1zm-6.2-.2v-.2h.4v.4h-.4zm1.1-.4v-.2h.4v.4h-.4Zm3.6 0 .3-.3.2.3.2.2h-.9zm-2.4-.4.2-.2.2.2.3.2h-1zm1.2 0 .5-.2.2.2.2.2h-1.4zm7.1-1v-.2h.4v.4h-.4Zm-.8-8-.2-.1.7-.5.8-.4-.3.3-.2.4H52l-.2.3-.3.2h-.7l-.7.1zm-2-2.7-.9-.7h1.2l.3-1 .4-1.1v-7.2l-.2-7.2.3-5.4.2-5.5v14.4l.1 14.4H49zm-2-1.5-.2-.4.4.2.4.3v.3h-.3Zm-.8-.5v-.2h.3v.4h-.3zm-2.1-1.2-1.6-1h-.7l-1-1-1-.8H38l.2-.2.2-.2 1.6.7 1.5.7.7.7.6.7h.9l.6.7.6.7h-.2zm-5.7-3.4v-.2h.4v.4h-.4zm-1-.7v-.2h.3v.4h-.3zm-1.8-1v-.2h.3v.3zm-3.9-2.5v-.2h.4v.4h-.4zM49.2 97v-2l.1 1 .2 1-.2 1-.1 1z"/>
  <path fill="#d41c3d" d="m66 165.9-1.2-.6-1.3-2-1.3-1.9.1-.2.2-.2.4.7.3.6h1.3l.3-.4.2-.4.7.3.6.2v-.9l-.1-.2.6-.5.7-.5-.2-.4-.3-.4h-1.2l.7-.6.7-.6V155l-.5-1.5-.4-1.5.3-.4.3-.4.3-.9.2-.8-.7-1-.7-1 .2-1 .1-1h.4l.4-.2V144l-.6-1.5-.5-1.5.5-.6.6-.6v-1.7l-1-.8-.8-.9.4-.8.3-.9.5-.5.6-.5v-1.3l-.6-.7-.5-.8.2-.5.2-.6h-.8l.4-.7.4-.7.3-2.3.2-2.3-.5-.3-.5-.3v-.6h-.5l-.6.1-1.5.2-1.4.3 1-.8.8-.8 7.4-4.3 7.4-4.4 5-3 5-3v-1.4l-1.4-1-1.5-1-6-3.7-6-3.6L68 93l-5.5-3.3-.5-.4-.5-.4.4-.1.4-.2 4-2.4 4-2.4 3.5-2 3.6-2 5.3-3.2 5.2-3.2 1-1 .8-.9 9.7-5.8 9.7-5.7 6-3.6 6-3.6 1.5-1.4 1.5-1.4v-1.7l.3.8.2 1V65l-.6 2-.9 1.8-1.8 1.6-1.7 1.6h-.6l-2.5 1.6L114 75h-.4l-6.2 3.8-6.3 3.7-.3.4-.2.4v.9l.7.6.7.7 2.2 1.2 2.2 1.3 6 3.7 6.1 3.8h.7l.4.5.4.4 1.6.9 1.6.8 1.6 1.8 1.6 1.8 1 1.7 1 1.8.7 2.3.8 2.2v14.4l-.6 2-.5 1.9-.9 1.7-.9 1.8-2 2.2-2.1 2.2-1.7 1-1.8.8-2 1.3-2.2 1.2-6 3.5-6 3.5-9.3 5.4-9.4 5.4-1.2.8-1.3.8-4.2 2.5-4.2 2.5-1.9.9-1.8 1h-2.7zM43.8 157l-.6-.2-.8-.3-.8-.3.1-.2.2-.2 1.9.5 1.8.6 1.1-.2 1.1-.2-.9.4-.8.3h-1.8zm4.5-.9.4-.4.2.2.2.2-.6.2-.7.3zm1.1-.4v-.2h.4v.3h-.4Zm1.5-1.5.3-.3.2.3.2.2h-.9zm2-3.3v-.5l.3.3.2.2-.2.2-.3.3zM35.4 147v-.9l.1.5.2.4-.2.4-.1.5zm11-7-.2-.3.7.2.7.1v.3h-1zm-6.2-.2v-.2h.4v.4h-.4zm1.1-.4v-.2h.4v.4h-.4Zm3.6 0 .3-.3.2.3.2.2h-.9zm-2.4-.4.2-.2.2.2.3.2h-1zm1.2 0 .5-.2.2.2.2.2h-1.4zm4.3-11.7-.9-.7h1.2l.3-1 .4-1.1v-7.2l-.2-7.2.3-5.4.2-5.5v14.4l.1 14.4H49zm-2-1.5-.2-.4.4.2.4.3v.3h-.3Zm-.8-.5v-.2h.3v.4h-.3zm-2.1-1.2-1.6-1h-.7l-1-1-1-.8H38l.2-.2.2-.2 1.6.7 1.5.7.7.7.6.7h.9l.6.7.6.7h-.2zm-5.7-3.4v-.2h.4v.4h-.4zm-1-.7v-.2h.3v.4h-.3zm-1.8-1v-.2h.3v.3zm-3.9-2.5v-.2h.4v.4h-.4zM49.2 97v-2l.1 1 .2 1-.2 1-.1 1z"/>
  <path fill="#c3194c" d="m66 165.9-1.2-.6-1.3-2-1.3-1.9.1-.2.2-.2.4.7.3.6h1.3l.3-.4.2-.4.7.3.6.2v-.9l-.1-.2.6-.5.7-.5-.2-.4-.3-.4h-1.2l.7-.6.7-.6V155l-.5-1.5-.4-1.5.3-.4.3-.4.3-.9.2-.8-.7-1-.7-1 .2-1 .1-1h.4l.4-.2V144l-.6-1.5-.5-1.5.5-.6.6-.6v-1.7l-1-.8-.8-.9.4-.8.3-.9.5-.5.6-.5v-1.3l-.6-.7-.5-.8.2-.5.2-.6h-.8l.4-.7.4-.7.3-2.3.2-2.3-.5-.3-.5-.3v-.6h-.5l-.6.1-1.5.2-1.4.3 1-.8.8-.8 7.4-4.3 7.4-4.4 5-3 5-3v-1.4l-1.4-1-1.5-1-6-3.7-6-3.6L68 93l-5.5-3.3-.5-.4-.5-.4.4-.1.4-.2 4-2.4 4-2.4 3.5-2 3.6-2 5.3-3.2 5.2-3.2.7-.8.8-.8 4.9-3 5-3 10.3-6.2 10.4-6.2 1.6-1 1.5-1.2.6-1 .7-1.1.1.5.2.4v15.2l-1 1.9-.8 1.8-1.8 1.6-1.7 1.6h-.6l-2.5 1.6L114 75h-.4l-6.2 3.8-6.3 3.7-.3.4-.2.4v.9l.7.6.7.7 2.2 1.2 2.2 1.3 6 3.7 6.1 3.8h.7l.4.5.4.4 1.6.9 1.6.8 1.6 1.8 1.6 1.8 1 1.7 1 1.8.7 2.3.8 2.2v14.4l-.6 2-.5 1.9-.9 1.7-.9 1.8-2 2.2-2.1 2.2-1.7 1-1.8.8-2 1.3-2.2 1.2-6 3.5-6 3.5-9.3 5.4-9.4 5.4-1.2.8-1.3.8-4.2 2.5-4.2 2.5-1.9.9-1.8 1h-2.7z"/>
  <path fill="#bb164e" d="m68.2 166.3.6-.2.5.2.4.2h-2.1zm1.7-.3v-.2h.3v.4H70zm1-.8v-.2l1-.8 1-.9 1.1-.8 1.2-.8v-.6l.4-1 .5-1.2.4-1.8.3-1.8-.3-.7-.2-.6v-2.6l.3-1 .4-.8-.7-1-.7-1 .5-1.4.6-1.4-.1-.9v-.8l-.1-2-.1-2.1h-.5l.2-2.5.2-2.4h-.8v-2.5h.6l-.2-1-.1-1.1.6-.6.5-.5V127l-.6-1.3-.7-1.3.3-.8.2-.7-.2-.3-.2-.4v-2.8l-.3-.6-.3-.6h1.1v-1.5l-.5.6-.6.5h-.6l-.1-.4-.1-.4h-2l.2-.2.1-.2 2.6-1.6 2.6-1.7 5.4-3.2 5.4-3.3v-1.3l-2.2-1.4-2.2-1.5-6-3.6-6-3.7-.1-.4-.2-.4 1.1.2 1.1.3 1.4-.3 1.5-.2-.5-.5-.4-.5H78l-.2-1.4-.3-1.4.5-1.5.4-1.6-1.4-2.1-1.5-2.2h-1.9l-2 .1.6-.5.5-.6 1.5-.7 1.5-.6.3-.4.4-.4 6-3.6 6.2-3.6.2-.5.3-.4 2.3-1.4 2.3-1.4 8.5-5.1 8.4-5 5-3 4.9-3 1.4-1 1.4-1 .5-.9.5-.9.2.1.2.2V65l-.7 2-.9 1.8-1.8 1.6-1.8 1.6h-.5l-2.5 1.6L114 75h-.4l-6.2 3.8-6.3 3.7-.3.4-.2.4v.9l.7.6.7.7 2.2 1.2 2.2 1.3 6 3.7 6.1 3.8h.7l.4.5.4.4 1.6.9 1.6.8 1.6 1.8 1.6 1.8 1 1.7 1 1.8.7 2.3.8 2.2v14.4l-.6 2-.5 1.9-.9 1.7-.9 1.8-2 2.2-2.1 2.2-1.7 1-1.8.8-2 1.3-2.2 1.2-6 3.5-6 3.5-9.3 5.4-9.4 5.4-1.2.8-1.3.8-4.2 2.5-4.2 2.4-1 .4-1 .5h-.7zm5-3.8v-.2h-.4v.4h.4zm-.7-78.7v-.2h-.4v.4h.4z"/>
  <path fill="#b91450" d="M80.1 160.2v-.4l.7-.4.7-.5v-1l.4.5.3.5v-.5l-.3-.8-.3-.8.6-.5.5-.5h.1l.1.1v-.1l-.1-.6-.2-.5-.3-2-.4-1.9.4-.1.3-.1-.2-.4-.3-.3v-9.3l-.4-.5-.2-.4.2-.4.3-.4v-4.1h-.6l.3-.7.2-.6v-6.7l-.1-2.4v-5.5l.1-3v-.4l-.1-.3v-.9l.4.2.4.2v-.8l.3.2.4.2v-1.8h.7v-.7l-1.5.3-1.5.2-.7.3-.7.4.5-.6.5-.6 4-2.5 4-2.5-.1-.7-.1-.8-2.2-1.4-2.2-1.4-2-1.2-2-1.2-1-1-1.2-1 1.4.5 1.4.6.2.2.2.3h.6l.7.2-.2-.3-.2-.3 1.2.1 1.2.2.2-.5.3-.4-1 .2-.9.2-.1-.8-.2-.8v-6.7l-.1-1.7v-4.2l.1-1.8.4-.4.3-.5.1-2 .2-2-.3.5-.3.4-.4-.2-.4-.3-.7-.1-.8-.2h-.1l-.1-.2L82 77l1.6-1.2h.4l5.6-3.6 5.5-3.7 7.6-4.5 7.6-4.5L116 56l5.8-3.5 1-1 1-.8.1-.7.3-.6.2.1.2.2V65l-.6 2-.9 1.8-1.8 1.6-1.8 1.6h-.5l-2.5 1.6L114 75h-.4l-6.2 3.8-6.3 3.7-.3.4-.2.4v.9l.7.6.7.7 2.2 1.2 2.2 1.3 6 3.7 6.1 3.8h.7l.4.5.4.4 1.6.9 1.6.8 1.6 1.8 1.6 1.8 1 1.7 1 1.8.7 2.3.8 2.2v14.4l-.6 2-.5 1.9-.9 1.7-.9 1.8-2 2.2-2.1 2.2-1.8 1-1.7.8-2 1.3-2.2 1.2-6 3.5-6 3.5-8 4.6-7.9 4.7-1.4.8-1.4.7-2.2 1.3-2.2 1.2zM84 149h-.4v.3h.4zm-6-35.2v-.2h.3v.3zm.7-.4v-.2h.3v.4h-.3z"/>
  <path fill="#b31151" d="M82.6 159v-.3h.3v.4zm.7-.7.2-.2.8-.4 1-.5-.6.6-.4.6zm2.8-1.7v-.4l.2.2.3.2-.3.3-.2.2zm.7-.6v-.4l.7-.5.6-.4.5-1.6.4-1.5.5-.8.5-.8-.4-.9-.4-.8.4-.8.4-.7v-1.9h-.7l.2-.4.2-.5-.6-.9-.6-.9.3-.8.2-.8.5-.5.4-.6-.2-2.1-.3-2.2.3-.7.2-.6-.4-.3-.4-.2v-4.6l-.5.4-.5.4.2-.6.3-.6V127l.3.2.4.2V126l-.6.2-.5.2v-1.2l.4.2.3.2.2-1.1.2-1.2-.3-2.8-.3-2.8.1-.5.2-.4h.7l-.4.8-.4.8.5-.7.6-.7v-.8l-.5-.5-.6-.4v-2l.4-.2.3-.3v-2.3l.4-.2.3-.3-.4-.8-.4-.9-.3.2-.3.2-.6-.4-.7-.3-.4.4-.4.5-.8.2-.8.2 1-.8 1.1-.9h.8l.3-.6.2-.5v-1.7l.3-.2.4-.2-.2-.6-.2-.5.4.2.3.3v-.7l-.7-.2-.7-.2V101l1.3-1.2 1.2-1.1-.5-.5-.5-.4.1-1.8.2-1.7.3-.7.4-.6-.5-.5-.5-.4V91l.1-1.1.2-.2.3-.2v-1l.2-1.2-.4-.5-.5-.5.4-2 .4-1.9-.5-1-.5-1 .2-.9v-.8l.7-.2.7-.1-.1-1.3-.1-1.3-.4-.1-.4-.2v-.9l-1-.1-1.1-.2-.6.4-.7.3-.4.7-.5.6-.4-.1-.5-.2-.6.5-.7.5h-.6v-.6l1-.4 1-.3.3.2.2.2v-1.2l.8-.2.8-.3.2-.2.1-.2 1.2-.8 1.1-.8v.9h.7l.7.1-.3-.6-.4-.7v-.3l2.8-1.8 2.7-1.7 12.5-7.5 12.6-7.5 1.1-.9 1.2-.9.6-1 .7-1 .1.2.2.3v15.2l-1 1.9-.8 1.8-1.8 1.6-1.7 1.6h-.6l-2.5 1.6L114 75h-.4l-6.2 3.8-6.3 3.7-.3.4-.2.4v.9l.7.6.7.7 2.2 1.2 2.2 1.3 6 3.7 6.1 3.8h.7l.4.5.4.4 1.6.9 1.6.8 1.6 1.8 1.6 1.8 1 1.7 1 1.8.7 2.3.8 2.2v14.4l-.6 2-.5 1.9-.9 1.7-.9 1.8-2 2.2-2.1 2.2-1.7 1-1.8.8-2 1.3-2.2 1.2-6 3.5-6 3.5-5.8 3.4-5.8 3.4-1.6.9-1.6.8-.8.3-.8.2zm2-16.4.2-.6.2.2.2.2-.4.4-.5.4zm-.2-2.7v-.9l.4.5.4.4-.4.4-.4.4zm0-2h.3v.3h-.3zm.3-.7h.4v.3h-.4zm-.5-11.2.3-.6.2.2.2.2-.5.4-.4.4zm.5-6.8h.4v.3h-.4zm-5.3-6.3.7-.2.7-.2-.2.3-.2.4h-1zm3-6-1.3-.7-.2-.4v-.4l.8.2 1 .1.1.4.2.3h1.2v1.4H88zm-3.3-2.1v-.2h.3v.4h-.3zm-1-.6-.2-.4.4.2.4.3v.3h-.3zm0-24.1v-.2h.3v.4h-.4z"/>
  <path fill="#ad1052" d="M94.6 151.7v-.3l1.2-1 1.2-1-.3-.4-.4-.4.1-.5.1-.5.6-.2.6-.3v-4.3l-.7.2-.6.3-.3-.9-.2-.8.1-1.2.2-1.2h.7l.8.1.2-.8.2-.7-.1-2-.2-2v-4.3H97l-.1 1.1-.1 1.2-.4-.1-.3-.1v-2.4l-.1-2.4-.3-.6-.3-.7.3-1.6.3-1.7-.1-3.7v-3.7l-.1-1.2v-9.7l.1-5v-7.8l-.2-1.3.3-1 .2-1h1.1v-.7l-.7-.2-.6-.2.2-.7.1-.7-.4.2-.4.3.2-1.2.3-1.2v-2.8l-.1-2.9.3-1 .4-1v-.2l.7-.7.7-.7v-2.2l-.7.2-.7.2.2-.8.2-.7-.3.2-.3.2-1-.4-.9-.5-.3.3-.4.4-.8-.2h-.8l2-1.4 1.9-1.2 4.2-2.6 4.2-2.5 2.1-1.4 2.2-1.3 3.5-2 3.5-2.1 3.4-2.2 3.3-2.1 1-1.1 1-1.2h.1v15.4L124 67l-.9 1.8-1.8 1.6-1.7 1.6h-.6l-2.5 1.6L114 75h-.4l-6.2 3.8-6.3 3.7-.3.4-.2.4v.9l.7.6.7.7 2.2 1.2 2.2 1.3 6 3.7 6.1 3.8h.7l.4.5.4.4 1.6.9 1.6.8 1.6 1.8 1.6 1.8 1 1.7 1 1.8.7 2.3.8 2.2v14.4l-.6 2-.5 1.9-.9 1.7-.9 1.8-2 2.2-2.1 2.2-1.7 1-1.8.8-2 1.3-2.2 1.2-8.3 4.9-8.3 4.8-.5.2-.5.2-1.3.8-1.4.8h-.3zm1.4-16.1v-1.7l.3-.5.4-.6.4.4.4.4-.4.7-.4.8v2.1H96z"/>
  <path fill="#aa0d53" d="m101.2 147.7.9-1h-.6l.5-.6.5-.6.5-.8.4-.8-.2-.8-.2-1 .5-.1.6-.3-.2-.3-.2-.3-.5.4-.5.4v2.2l-.4-1-.4-.8.6-1.6.5-1.5-.3-.4-.3-.3v-11l-.3-2-.4-2.2.1-2.4.1-2.4-.3-.1-.3-.2.2-.7.2-.7h-.9l.6-.7.7-.7-.6-.2-.6-.3v-1l.5.1.4.1v-3.5l.2-.7.2-.7h-.5l-.4.2.1-2.7.2-2.6h-.7v-1.2l.4-1.1.4-1.2-.2-.6-.3-.7v-1.8l.1-1.7.3-.3.3-.3-.2-2.4-.2-2.5.5-.5.4-.5-.3-1.3-.2-1.4-.8-.6-.7-.6.2-.2.2-.2.8.5 1 .5 1.7 1 1.7 1 .6.3.5.5 2.5 1.4 2.4 1.4 3.3 2 3.3 2h.6l.4.5.4.4 1.6.9 1.6.8 1.6 1.8 1.6 1.8 1 1.7 1 1.8.7 2.3.8 2.2v14.4l-.6 2-.5 1.9-.9 1.7-.9 1.8-2 2.2-2.1 2.2-1 .5-1 .5-2.2 1.2-2 1.3-2.2 1.3-2.1 1.3-3.2 1.6-3.2 1.7-.3.3-.4.3-2.4 1.3-2.5 1.3zm-.3-66v-.4l-.1-.5v-.5l.8-1 .8-1v-4.5l.1-4.7h-.9l.4-.7.4-.7.5.2.5.2v-.6l-1-.3-.8-.2.1-.5.2-.5-.4.1h-.5l-.6.5-.5.5-.4-.1-.4-.2 2.4-1.5 2.4-1.6 2.3-1.4 2.3-1.5.9-.5.9-.4 6.3-4 6.3-3.8.7-1.2.8-1.1h.3V65l-.8 1.8-.8 1.8-1 1-1.1 1-2.4 1.5-2.3 1.5-3 1.7-3 1.7-.7.2-.6.3-2.4 1.6-2.5 1.6h-.5l-1 .7-.8.7h-.9z"/>
  <path fill="#a30b54" d="M104.4 146.3v-.2l.7-.4.6-.5-.5.6-.5.6zm3.6-3 .3-.8v-2.8h1.4l.2-.4.2-.3.2-1.3.2-1.4v-7.8l-.4-.2-.3-.3-.2.4-.3.4-.3-.2-.3-.2V127l.5-.2.5-.2v-.7l-.6-.1-.7-.2-.1-1.5-.2-1.5.5-.9.4-.9-.3-.6-.4-.6V107l-.2-5.7-.3-.9-.2-.8.5-.7.5-.7-.4-1.6-.3-1.6-.1-1.2v-1.2l-.5-.4-.4-.4V90l-.5-.8-.5-1v.6l-1.1-.4-1-.4-.4-.6-.4-.7h.7l.8.3.8.3.8.8.8.7h.5l3 1.8 3 1.8L116 94l2.6 1.5h.6l.4.5.4.4 1.6.9 1.6.8 1.6 1.8 1.6 1.8 1 1.7 1 1.8.7 2.3.8 2.2v14.4l-.6 2-.5 1.9-.9 1.7-.9 1.8-2.1 2.2-2.1 2.3-1.5.7-1.5.8-2.7 1.6-2.6 1.5-2.1 1.3-2.1 1.2-1.3.5-1.4.6zm-4-63.5 1.3-1h1.3v.4l-1.4.8-1.4.8h-.9zm4-2 .5-.6-.1-2.8-.1-2.8h1.4l.3-.4.3-.5.3-1.9.2-1.9.7-1 .7-1-.2-1.5-.2-1.5-1-.4-.8-.5-.9.6-.8.5.1.4.1.4h-.9l-.9.1-.8.3-1 .2 1.1-.9 1-.9 2.2-1 2.1-1.2 1.4-1 1.4-.9 4.1-2.5 4-2.6 1.3-1.4 1.2-1.3V65l-.8 1.8-.8 1.7-1 1-.9 1-2.1 1.3L117 73l-.6.5-.5.4-4.2 2.2-4.3 2.2z"/>
  <path fill="#9a0854" d="m112.6 141.3.5-.2.6-.2-.3.3-.2.4h-.6zm1.5-1.2.3-.4h.6v.7h-1zm2.8-1.8.9-1 .2-1.2.3-1.2.1-.6.2-.6h1.3l.4-.5.4-.5v-2.2l-.1-2.3.2-.9.3-1-.4-.2-.4-.2v-1.5l-.5.6-.5.7-.4-.3-.3-.3v-3l-.2-3 .2-.4.2-.3-.3-2.2-.3-2v-7.5l.1-1.2.2-1.3-.3-1.9-.3-1.9.4-1 .3-1-1-1.1-1-1.2-.3-.6-.2-.6h-1.7l-.5-.6-.4-.5-.1-.5v-.6l.3.4.4.3L117 95l2.8 1.4.5.5.6.4 1 .5 1 .5 1.7 1.7 1.7 1.7 1.6 3.3 1.6 3.2v9.4l-.2 9.3-1.3 2.5-1.3 2.5-1.7 2-1.8 1.9-1.7.8-1.7.8-1 .7-.9.6-1 .4-.9.4zm3.8-20v-.3l-.4-.5-.3-.6v1.6h.7zm-7.4-43.8.3-.7 2-1 2-1 .6-1 .6-1.1-.2-.5-.1-.4h.7l.6-2.3.6-2.3-.2-1.8-.3-1.8.6-.6.6-.7-.1-1.3-.1-1.4-.9-.1-.8-.1-.3.5-.3.4-.4-.4-.4-.4-.5.2-.5.2v-.7L120 54l3.2-2.2.5-.9.5-1h.5l-.1 5-.2 4.8v3l-.2 3-.8 1.7-.8 1.7-1.5 1.1-1.6 1.2-1.7.8-1.6.9-.2.2-.2.2-1.2.8-1.3.7h-.5z"/>
</svg>
